%
M48
M72
T01C0.03200
T02C0.04000
T03C0.04400
T04C0.04700
T05C0.13000
%
T01
X62200Y95200
X62200Y109200
X112200Y107700
X112200Y126700
X62200Y150200
X62200Y164200
X237200Y157200
X247200Y157200
X247200Y137200
X237200Y137200
X237200Y117200
X247200Y117200
X247200Y97200
X237200Y97200
X237200Y77200
X247200Y77200
X247200Y57200
X237200Y57200
X237200Y37200
X247200Y37200
X247200Y177200
X237200Y177200
T02
X141100Y50000
X123300Y50000
X111100Y50000
X93300Y50000
X81100Y50000
X63300Y50000
X51100Y50000
X33300Y50000
X33300Y24400
X51100Y24400
X63300Y24400
X81100Y24400
X93300Y24400
X111100Y24400
X123300Y24400
X141100Y24400
T03
X17200Y17200
X152200Y57200
X152200Y67200
X152200Y77200
X152200Y87200
X152200Y97200
X152200Y107200
X152200Y117200
X152200Y127200
X152200Y137200
X152200Y147200
X182200Y147200
X182200Y137200
X182200Y127200
X182200Y117200
X182200Y107200
X182200Y97200
X182200Y87200
X182200Y77200
X182200Y67200
X182200Y57200
X267200Y57200
X277200Y57200
X287200Y57200
X292200Y17200
X292200Y187200
X17200Y187200
T04
X267357Y157200
X287043Y157200
T05
X277200Y116200
M30
