%
M48
M72
T01C0.03200
T02C0.04000
T03C0.04400
T04C0.04700
T05C0.13000
%
T01
X56800Y94800
X56800Y108800
X106800Y107300
X106800Y126300
X56800Y149800
X56800Y163800
X231800Y156800
X241800Y156800
X241800Y176800
X231800Y176800
X231800Y136800
X241800Y136800
X241800Y116800
X231800Y116800
X231800Y96800
X241800Y96800
X241800Y76800
X231800Y76800
X231800Y56800
X241800Y56800
X241800Y36800
X231800Y36800
T02
X135700Y24000
X117900Y24000
X105700Y24000
X87900Y24000
X75700Y24000
X57900Y24000
X45700Y24000
X27900Y24000
X27900Y49600
X45700Y49600
X57900Y49600
X75700Y49600
X87900Y49600
X105700Y49600
X117900Y49600
X135700Y49600
T03
X11800Y16800
X146800Y56800
X146800Y66800
X146800Y76800
X146800Y86800
X146800Y96800
X146800Y106800
X146800Y116800
X146800Y126800
X146800Y136800
X146800Y146800
X176800Y146800
X176800Y136800
X176800Y126800
X176800Y116800
X176800Y106800
X176800Y96800
X176800Y86800
X176800Y76800
X176800Y66800
X176800Y56800
X261800Y56800
X271800Y56800
X281800Y56800
X286800Y16800
X286800Y186800
X11800Y186800
T04
X261957Y156800
X281643Y156800
T05
X271800Y115800
M30
