G75*
%MOIN*%
%OFA0B0*%
%FSLAX25Y25*%
%IPPOS*%
%LPD*%
%AMOC8*
5,1,8,0,0,1.08239X$1,22.5*
%
%ADD10C,0.00000*%
%ADD11C,0.02000*%
%ADD12R,0.06299X0.07087*%
%ADD13OC8,0.06300*%
%ADD14C,0.06300*%
%ADD15C,0.06600*%
%ADD16OC8,0.05200*%
%ADD17OC8,0.10000*%
%ADD18R,0.05118X0.05906*%
%ADD19C,0.06000*%
%ADD20R,0.06600X0.06600*%
%ADD21C,0.06600*%
%ADD22C,0.07050*%
%ADD23C,0.07087*%
%ADD24C,0.02400*%
%ADD25C,0.01600*%
%ADD26C,0.03200*%
D10*
X0001800Y0001800D02*
X0001800Y0201761D01*
X0300501Y0201761D01*
X0300501Y0001800D01*
X0001800Y0001800D01*
X0265300Y0115800D02*
X0265302Y0115961D01*
X0265308Y0116121D01*
X0265318Y0116282D01*
X0265332Y0116442D01*
X0265350Y0116602D01*
X0265371Y0116761D01*
X0265397Y0116920D01*
X0265427Y0117078D01*
X0265460Y0117235D01*
X0265498Y0117392D01*
X0265539Y0117547D01*
X0265584Y0117701D01*
X0265633Y0117854D01*
X0265686Y0118006D01*
X0265742Y0118157D01*
X0265803Y0118306D01*
X0265866Y0118454D01*
X0265934Y0118600D01*
X0266005Y0118744D01*
X0266079Y0118886D01*
X0266157Y0119027D01*
X0266239Y0119165D01*
X0266324Y0119302D01*
X0266412Y0119436D01*
X0266504Y0119568D01*
X0266599Y0119698D01*
X0266697Y0119826D01*
X0266798Y0119951D01*
X0266902Y0120073D01*
X0267009Y0120193D01*
X0267119Y0120310D01*
X0267232Y0120425D01*
X0267348Y0120536D01*
X0267467Y0120645D01*
X0267588Y0120750D01*
X0267712Y0120853D01*
X0267838Y0120953D01*
X0267966Y0121049D01*
X0268097Y0121142D01*
X0268231Y0121232D01*
X0268366Y0121319D01*
X0268504Y0121402D01*
X0268643Y0121482D01*
X0268785Y0121558D01*
X0268928Y0121631D01*
X0269073Y0121700D01*
X0269220Y0121766D01*
X0269368Y0121828D01*
X0269518Y0121886D01*
X0269669Y0121941D01*
X0269822Y0121992D01*
X0269976Y0122039D01*
X0270131Y0122082D01*
X0270287Y0122121D01*
X0270443Y0122157D01*
X0270601Y0122188D01*
X0270759Y0122216D01*
X0270918Y0122240D01*
X0271078Y0122260D01*
X0271238Y0122276D01*
X0271398Y0122288D01*
X0271559Y0122296D01*
X0271720Y0122300D01*
X0271880Y0122300D01*
X0272041Y0122296D01*
X0272202Y0122288D01*
X0272362Y0122276D01*
X0272522Y0122260D01*
X0272682Y0122240D01*
X0272841Y0122216D01*
X0272999Y0122188D01*
X0273157Y0122157D01*
X0273313Y0122121D01*
X0273469Y0122082D01*
X0273624Y0122039D01*
X0273778Y0121992D01*
X0273931Y0121941D01*
X0274082Y0121886D01*
X0274232Y0121828D01*
X0274380Y0121766D01*
X0274527Y0121700D01*
X0274672Y0121631D01*
X0274815Y0121558D01*
X0274957Y0121482D01*
X0275096Y0121402D01*
X0275234Y0121319D01*
X0275369Y0121232D01*
X0275503Y0121142D01*
X0275634Y0121049D01*
X0275762Y0120953D01*
X0275888Y0120853D01*
X0276012Y0120750D01*
X0276133Y0120645D01*
X0276252Y0120536D01*
X0276368Y0120425D01*
X0276481Y0120310D01*
X0276591Y0120193D01*
X0276698Y0120073D01*
X0276802Y0119951D01*
X0276903Y0119826D01*
X0277001Y0119698D01*
X0277096Y0119568D01*
X0277188Y0119436D01*
X0277276Y0119302D01*
X0277361Y0119165D01*
X0277443Y0119027D01*
X0277521Y0118886D01*
X0277595Y0118744D01*
X0277666Y0118600D01*
X0277734Y0118454D01*
X0277797Y0118306D01*
X0277858Y0118157D01*
X0277914Y0118006D01*
X0277967Y0117854D01*
X0278016Y0117701D01*
X0278061Y0117547D01*
X0278102Y0117392D01*
X0278140Y0117235D01*
X0278173Y0117078D01*
X0278203Y0116920D01*
X0278229Y0116761D01*
X0278250Y0116602D01*
X0278268Y0116442D01*
X0278282Y0116282D01*
X0278292Y0116121D01*
X0278298Y0115961D01*
X0278300Y0115800D01*
X0278298Y0115639D01*
X0278292Y0115479D01*
X0278282Y0115318D01*
X0278268Y0115158D01*
X0278250Y0114998D01*
X0278229Y0114839D01*
X0278203Y0114680D01*
X0278173Y0114522D01*
X0278140Y0114365D01*
X0278102Y0114208D01*
X0278061Y0114053D01*
X0278016Y0113899D01*
X0277967Y0113746D01*
X0277914Y0113594D01*
X0277858Y0113443D01*
X0277797Y0113294D01*
X0277734Y0113146D01*
X0277666Y0113000D01*
X0277595Y0112856D01*
X0277521Y0112714D01*
X0277443Y0112573D01*
X0277361Y0112435D01*
X0277276Y0112298D01*
X0277188Y0112164D01*
X0277096Y0112032D01*
X0277001Y0111902D01*
X0276903Y0111774D01*
X0276802Y0111649D01*
X0276698Y0111527D01*
X0276591Y0111407D01*
X0276481Y0111290D01*
X0276368Y0111175D01*
X0276252Y0111064D01*
X0276133Y0110955D01*
X0276012Y0110850D01*
X0275888Y0110747D01*
X0275762Y0110647D01*
X0275634Y0110551D01*
X0275503Y0110458D01*
X0275369Y0110368D01*
X0275234Y0110281D01*
X0275096Y0110198D01*
X0274957Y0110118D01*
X0274815Y0110042D01*
X0274672Y0109969D01*
X0274527Y0109900D01*
X0274380Y0109834D01*
X0274232Y0109772D01*
X0274082Y0109714D01*
X0273931Y0109659D01*
X0273778Y0109608D01*
X0273624Y0109561D01*
X0273469Y0109518D01*
X0273313Y0109479D01*
X0273157Y0109443D01*
X0272999Y0109412D01*
X0272841Y0109384D01*
X0272682Y0109360D01*
X0272522Y0109340D01*
X0272362Y0109324D01*
X0272202Y0109312D01*
X0272041Y0109304D01*
X0271880Y0109300D01*
X0271720Y0109300D01*
X0271559Y0109304D01*
X0271398Y0109312D01*
X0271238Y0109324D01*
X0271078Y0109340D01*
X0270918Y0109360D01*
X0270759Y0109384D01*
X0270601Y0109412D01*
X0270443Y0109443D01*
X0270287Y0109479D01*
X0270131Y0109518D01*
X0269976Y0109561D01*
X0269822Y0109608D01*
X0269669Y0109659D01*
X0269518Y0109714D01*
X0269368Y0109772D01*
X0269220Y0109834D01*
X0269073Y0109900D01*
X0268928Y0109969D01*
X0268785Y0110042D01*
X0268643Y0110118D01*
X0268504Y0110198D01*
X0268366Y0110281D01*
X0268231Y0110368D01*
X0268097Y0110458D01*
X0267966Y0110551D01*
X0267838Y0110647D01*
X0267712Y0110747D01*
X0267588Y0110850D01*
X0267467Y0110955D01*
X0267348Y0111064D01*
X0267232Y0111175D01*
X0267119Y0111290D01*
X0267009Y0111407D01*
X0266902Y0111527D01*
X0266798Y0111649D01*
X0266697Y0111774D01*
X0266599Y0111902D01*
X0266504Y0112032D01*
X0266412Y0112164D01*
X0266324Y0112298D01*
X0266239Y0112435D01*
X0266157Y0112573D01*
X0266079Y0112714D01*
X0266005Y0112856D01*
X0265934Y0113000D01*
X0265866Y0113146D01*
X0265803Y0113294D01*
X0265742Y0113443D01*
X0265686Y0113594D01*
X0265633Y0113746D01*
X0265584Y0113899D01*
X0265539Y0114053D01*
X0265498Y0114208D01*
X0265460Y0114365D01*
X0265427Y0114522D01*
X0265397Y0114680D01*
X0265371Y0114839D01*
X0265350Y0114998D01*
X0265332Y0115158D01*
X0265318Y0115318D01*
X0265308Y0115479D01*
X0265302Y0115639D01*
X0265300Y0115800D01*
D11*
X0210800Y0035805D02*
X0208798Y0033803D01*
X0206797Y0035805D01*
X0206797Y0029800D01*
X0203434Y0030801D02*
X0202433Y0031802D01*
X0199430Y0031802D01*
X0199430Y0032803D02*
X0199430Y0029800D01*
X0202433Y0029800D01*
X0203434Y0030801D01*
X0202433Y0033803D02*
X0200431Y0033803D01*
X0199430Y0032803D01*
X0196067Y0033803D02*
X0194066Y0033803D01*
X0195067Y0034804D02*
X0195067Y0030801D01*
X0194066Y0029800D01*
X0191157Y0030801D02*
X0191157Y0032803D01*
X0190156Y0033803D01*
X0188154Y0033803D01*
X0187153Y0032803D01*
X0187153Y0031802D01*
X0191157Y0031802D01*
X0191157Y0030801D02*
X0190156Y0029800D01*
X0188154Y0029800D01*
X0183790Y0030801D02*
X0182789Y0029800D01*
X0179787Y0029800D01*
X0179787Y0033803D01*
X0176424Y0032803D02*
X0175423Y0033803D01*
X0172421Y0033803D01*
X0173421Y0031802D02*
X0172421Y0030801D01*
X0173421Y0029800D01*
X0176424Y0029800D01*
X0175423Y0031802D02*
X0176424Y0032803D01*
X0175423Y0031802D02*
X0173421Y0031802D01*
X0169058Y0033803D02*
X0165054Y0033803D01*
X0169058Y0029800D01*
X0165054Y0029800D01*
X0164374Y0024806D02*
X0164374Y0023805D01*
X0164374Y0021803D02*
X0164374Y0017800D01*
X0165375Y0017800D02*
X0163373Y0017800D01*
X0164374Y0021803D02*
X0165375Y0021803D01*
X0168511Y0021803D02*
X0171513Y0019802D01*
X0168511Y0017800D01*
X0171513Y0017800D02*
X0171513Y0023805D01*
X0174876Y0021803D02*
X0177879Y0021803D01*
X0178879Y0020803D01*
X0177879Y0019802D01*
X0175877Y0019802D01*
X0174876Y0018801D01*
X0175877Y0017800D01*
X0178879Y0017800D01*
X0182242Y0017800D02*
X0182242Y0020803D01*
X0183243Y0021803D01*
X0186246Y0021803D01*
X0186246Y0017800D01*
X0189155Y0017800D02*
X0191157Y0017800D01*
X0190156Y0017800D02*
X0190156Y0021803D01*
X0191157Y0021803D01*
X0190156Y0023805D02*
X0190156Y0024806D01*
X0194519Y0021803D02*
X0197522Y0021803D01*
X0198523Y0020803D01*
X0198523Y0018801D01*
X0197522Y0017800D01*
X0194519Y0017800D01*
X0201432Y0017800D02*
X0203434Y0017800D01*
X0202433Y0017800D02*
X0202433Y0021803D01*
X0203434Y0021803D01*
X0202433Y0023805D02*
X0202433Y0024806D01*
X0206797Y0023805D02*
X0206797Y0017800D01*
X0208798Y0019802D01*
X0210800Y0017800D01*
X0210800Y0023805D01*
X0210800Y0029800D02*
X0210800Y0035805D01*
X0183790Y0033803D02*
X0183790Y0030801D01*
D12*
X0112312Y0086800D03*
X0101288Y0086800D03*
X0101288Y0146800D03*
X0112312Y0146800D03*
D13*
X0056800Y0163800D03*
X0056800Y0094800D03*
D14*
X0056800Y0108800D03*
X0056800Y0149800D03*
D15*
X0261800Y0060100D02*
X0261800Y0053500D01*
X0271800Y0053500D02*
X0271800Y0060100D01*
X0281800Y0060100D02*
X0281800Y0053500D01*
D16*
X0241800Y0056800D03*
X0231800Y0056800D03*
X0231800Y0036800D03*
X0241800Y0036800D03*
X0241800Y0076800D03*
X0231800Y0076800D03*
X0231800Y0096800D03*
X0241800Y0096800D03*
X0241800Y0116800D03*
X0231800Y0116800D03*
X0231800Y0136800D03*
X0241800Y0136800D03*
X0241800Y0156800D03*
X0231800Y0156800D03*
X0231800Y0176800D03*
X0241800Y0176800D03*
D17*
X0286800Y0186800D03*
X0286800Y0016800D03*
X0011800Y0016800D03*
X0011800Y0186800D03*
D18*
X0113454Y0161800D03*
X0120146Y0161800D03*
X0203454Y0156800D03*
X0210146Y0156800D03*
X0210146Y0141800D03*
X0203454Y0141800D03*
X0203454Y0126800D03*
X0210146Y0126800D03*
X0210146Y0111800D03*
X0203454Y0111800D03*
X0203454Y0096800D03*
X0210146Y0096800D03*
X0210146Y0081800D03*
X0203454Y0081800D03*
X0203454Y0066800D03*
X0210146Y0066800D03*
X0210146Y0051800D03*
X0203454Y0051800D03*
D19*
X0135700Y0052600D02*
X0135700Y0046600D01*
X0117900Y0046600D02*
X0117900Y0052600D01*
X0105700Y0052600D02*
X0105700Y0046600D01*
X0087900Y0046600D02*
X0087900Y0052600D01*
X0075700Y0052600D02*
X0075700Y0046600D01*
X0057900Y0046600D02*
X0057900Y0052600D01*
X0045700Y0052600D02*
X0045700Y0046600D01*
X0027900Y0046600D02*
X0027900Y0052600D01*
X0027900Y0027000D02*
X0027900Y0021000D01*
X0045700Y0021000D02*
X0045700Y0027000D01*
X0057900Y0027000D02*
X0057900Y0021000D01*
X0075700Y0021000D02*
X0075700Y0027000D01*
X0087900Y0027000D02*
X0087900Y0021000D01*
X0105700Y0021000D02*
X0105700Y0027000D01*
X0117900Y0027000D02*
X0117900Y0021000D01*
X0135700Y0021000D02*
X0135700Y0027000D01*
D20*
X0146800Y0146800D03*
D21*
X0146800Y0136800D03*
X0146800Y0126800D03*
X0146800Y0116800D03*
X0146800Y0106800D03*
X0146800Y0096800D03*
X0146800Y0086800D03*
X0146800Y0076800D03*
X0146800Y0066800D03*
X0146800Y0056800D03*
X0176800Y0056800D03*
X0176800Y0066800D03*
X0176800Y0076800D03*
X0176800Y0086800D03*
X0176800Y0096800D03*
X0176800Y0106800D03*
X0176800Y0116800D03*
X0176800Y0126800D03*
X0176800Y0136800D03*
X0176800Y0146800D03*
D22*
X0261957Y0153275D02*
X0261957Y0160325D01*
X0281643Y0160325D02*
X0281643Y0153275D01*
D23*
X0106800Y0126300D03*
X0106800Y0107300D03*
D24*
X0112312Y0101788D01*
X0112312Y0086800D01*
X0101288Y0086800D02*
X0101288Y0087312D01*
X0086800Y0101800D01*
X0063800Y0101800D01*
X0056800Y0094800D01*
X0056800Y0078500D01*
X0027900Y0049600D01*
X0027900Y0024000D01*
X0040100Y0011800D01*
X0066800Y0011800D01*
X0057900Y0020700D01*
X0057900Y0049600D01*
X0057900Y0024000D01*
X0066800Y0011800D02*
X0100100Y0011800D01*
X0087900Y0024000D01*
X0087900Y0049600D01*
X0075700Y0049600D02*
X0075700Y0050700D01*
X0096800Y0071800D01*
X0121800Y0071800D01*
X0136800Y0086800D01*
X0146800Y0086800D01*
X0146800Y0096800D02*
X0136800Y0096800D01*
X0116800Y0076800D01*
X0072900Y0076800D01*
X0045700Y0049600D01*
X0105700Y0049600D02*
X0105700Y0055700D01*
X0111800Y0061800D01*
X0131800Y0061800D01*
X0146800Y0076800D01*
X0146800Y0066800D02*
X0135700Y0055700D01*
X0135700Y0049600D01*
X0146800Y0056800D02*
X0146800Y0016800D01*
X0151800Y0011800D01*
X0261800Y0011800D01*
X0291800Y0041800D01*
X0291800Y0071800D01*
X0286800Y0076800D01*
X0271800Y0061800D02*
X0271800Y0056800D01*
X0231800Y0056800D02*
X0221800Y0066800D01*
X0210146Y0066800D01*
X0201800Y0066800D02*
X0191800Y0076800D01*
X0176800Y0076800D01*
X0176800Y0066800D02*
X0186800Y0066800D01*
X0201800Y0051800D01*
X0210146Y0051800D02*
X0216800Y0051800D01*
X0231800Y0036800D01*
X0231800Y0076800D02*
X0226800Y0081800D01*
X0210146Y0081800D01*
X0203454Y0081800D02*
X0198454Y0086800D01*
X0176800Y0086800D01*
X0176800Y0096800D02*
X0203454Y0096800D01*
X0210146Y0096800D02*
X0231800Y0096800D01*
X0226800Y0111800D02*
X0210146Y0111800D01*
X0203454Y0111800D02*
X0198454Y0106800D01*
X0176800Y0106800D01*
X0176800Y0116800D02*
X0193454Y0116800D01*
X0203454Y0126800D01*
X0210146Y0126800D02*
X0221800Y0126800D01*
X0231800Y0136800D01*
X0216800Y0141800D02*
X0231800Y0156800D01*
X0211800Y0156800D02*
X0231800Y0176800D01*
X0211800Y0156800D02*
X0210146Y0156800D01*
X0203454Y0156800D02*
X0183454Y0136800D01*
X0176800Y0136800D01*
X0176800Y0126800D02*
X0188454Y0126800D01*
X0203454Y0141800D01*
X0210146Y0141800D02*
X0216800Y0141800D01*
X0231800Y0116800D02*
X0226800Y0111800D01*
X0176800Y0146800D02*
X0146800Y0146800D01*
X0135146Y0146800D01*
X0120146Y0161800D01*
X0119300Y0162646D01*
X0119300Y0169300D01*
X0116800Y0171800D01*
X0106800Y0171800D01*
X0098800Y0163800D01*
X0056800Y0163800D01*
X0086800Y0132312D02*
X0101288Y0146800D01*
X0101288Y0149635D01*
X0113454Y0161800D01*
X0120146Y0161800D02*
X0121800Y0163454D01*
X0112312Y0146800D02*
X0112312Y0131812D01*
X0106800Y0126300D01*
X0137300Y0126300D01*
X0146800Y0116800D01*
X0146300Y0107300D02*
X0146800Y0106800D01*
X0146300Y0107300D02*
X0106800Y0107300D01*
X0086800Y0101800D02*
X0086800Y0132312D01*
X0117900Y0049600D02*
X0117900Y0024000D01*
X0130100Y0011800D01*
X0100100Y0011800D01*
X0130100Y0011800D02*
X0141800Y0011800D01*
X0146800Y0016800D01*
D25*
X0150800Y0018457D02*
X0150800Y0052173D01*
X0151971Y0053345D01*
X0152900Y0055587D01*
X0152900Y0058013D01*
X0151971Y0060255D01*
X0150427Y0061800D01*
X0151971Y0063345D01*
X0152900Y0065587D01*
X0152900Y0068013D01*
X0151971Y0070255D01*
X0150427Y0071800D01*
X0151971Y0073345D01*
X0152900Y0075587D01*
X0152900Y0078013D01*
X0151971Y0080255D01*
X0150427Y0081800D01*
X0151971Y0083345D01*
X0152900Y0085587D01*
X0152900Y0088013D01*
X0151971Y0090255D01*
X0150427Y0091800D01*
X0151971Y0093345D01*
X0152900Y0095587D01*
X0152900Y0098013D01*
X0151971Y0100255D01*
X0150427Y0101800D01*
X0151971Y0103345D01*
X0152900Y0105587D01*
X0152900Y0108013D01*
X0151971Y0110255D01*
X0150427Y0111800D01*
X0151971Y0113345D01*
X0152900Y0115587D01*
X0152900Y0118013D01*
X0151971Y0120255D01*
X0150427Y0121800D01*
X0151971Y0123345D01*
X0152900Y0125587D01*
X0152900Y0128013D01*
X0151971Y0130255D01*
X0150427Y0131800D01*
X0151971Y0133345D01*
X0152900Y0135587D01*
X0152900Y0138013D01*
X0151971Y0140255D01*
X0151272Y0140955D01*
X0151686Y0141126D01*
X0152474Y0141914D01*
X0152841Y0142800D01*
X0172173Y0142800D01*
X0173173Y0141800D01*
X0171629Y0140255D01*
X0170700Y0138013D01*
X0170700Y0135587D01*
X0171629Y0133345D01*
X0173173Y0131800D01*
X0171629Y0130255D01*
X0170700Y0128013D01*
X0170700Y0125587D01*
X0171629Y0123345D01*
X0173173Y0121800D01*
X0171629Y0120255D01*
X0170700Y0118013D01*
X0170700Y0115587D01*
X0171629Y0113345D01*
X0173173Y0111800D01*
X0171629Y0110255D01*
X0170700Y0108013D01*
X0170700Y0105587D01*
X0171629Y0103345D01*
X0173173Y0101800D01*
X0171629Y0100255D01*
X0170700Y0098013D01*
X0170700Y0095587D01*
X0171629Y0093345D01*
X0173173Y0091800D01*
X0171629Y0090255D01*
X0170700Y0088013D01*
X0170700Y0085587D01*
X0171629Y0083345D01*
X0173173Y0081800D01*
X0171629Y0080255D01*
X0170700Y0078013D01*
X0170700Y0075587D01*
X0171629Y0073345D01*
X0173173Y0071800D01*
X0171629Y0070255D01*
X0170700Y0068013D01*
X0170700Y0065587D01*
X0171629Y0063345D01*
X0173173Y0061800D01*
X0171629Y0060255D01*
X0170700Y0058013D01*
X0170700Y0055587D01*
X0171629Y0053345D01*
X0173345Y0051629D01*
X0175587Y0050700D01*
X0178013Y0050700D01*
X0180255Y0051629D01*
X0181971Y0053345D01*
X0182900Y0055587D01*
X0182900Y0058013D01*
X0181971Y0060255D01*
X0180427Y0061800D01*
X0181427Y0062800D01*
X0185143Y0062800D01*
X0198094Y0049849D01*
X0198094Y0048290D01*
X0198521Y0047261D01*
X0199308Y0046474D01*
X0200338Y0046047D01*
X0206570Y0046047D01*
X0206800Y0046143D01*
X0207030Y0046047D01*
X0213262Y0046047D01*
X0214292Y0046474D01*
X0215079Y0047261D01*
X0215256Y0047687D01*
X0226400Y0036543D01*
X0226400Y0034563D01*
X0229563Y0031400D01*
X0234037Y0031400D01*
X0236800Y0034163D01*
X0239563Y0031400D01*
X0244037Y0031400D01*
X0245037Y0032400D01*
X0272675Y0032400D01*
X0274292Y0033070D01*
X0275530Y0034308D01*
X0285530Y0044308D01*
X0286200Y0045925D01*
X0286200Y0049273D01*
X0286971Y0050045D01*
X0287800Y0052045D01*
X0287800Y0043457D01*
X0260143Y0015800D01*
X0214085Y0015800D01*
X0214600Y0017044D01*
X0214600Y0024561D01*
X0214021Y0025958D01*
X0213177Y0026803D01*
X0214021Y0027647D01*
X0214600Y0029044D01*
X0214600Y0036561D01*
X0214021Y0037958D01*
X0212953Y0039027D01*
X0211556Y0039605D01*
X0210044Y0039605D01*
X0208798Y0039089D01*
X0207552Y0039605D01*
X0206041Y0039605D01*
X0204644Y0039027D01*
X0203575Y0037958D01*
X0203393Y0037519D01*
X0203189Y0037603D01*
X0199675Y0037603D01*
X0198279Y0037025D01*
X0198249Y0036996D01*
X0198220Y0037025D01*
X0197219Y0038026D01*
X0195822Y0038604D01*
X0194311Y0038604D01*
X0192914Y0038026D01*
X0192029Y0037141D01*
X0191718Y0037269D01*
X0190912Y0037603D01*
X0187398Y0037603D01*
X0186001Y0037025D01*
X0185972Y0036996D01*
X0185943Y0037025D01*
X0184546Y0037603D01*
X0183034Y0037603D01*
X0181789Y0037087D01*
X0180543Y0037603D01*
X0179031Y0037603D01*
X0177634Y0037025D01*
X0177605Y0036996D01*
X0177576Y0037025D01*
X0176986Y0037269D01*
X0176179Y0037603D01*
X0171665Y0037603D01*
X0170739Y0037220D01*
X0169814Y0037603D01*
X0164298Y0037603D01*
X0162902Y0037025D01*
X0161833Y0035956D01*
X0161254Y0034559D01*
X0161254Y0033048D01*
X0161770Y0031802D01*
X0161254Y0030556D01*
X0161254Y0029044D01*
X0161833Y0027647D01*
X0161837Y0027643D01*
X0161152Y0026959D01*
X0160574Y0025562D01*
X0160574Y0023049D01*
X0160675Y0022804D01*
X0160574Y0022559D01*
X0160574Y0020375D01*
X0160151Y0019953D01*
X0159573Y0018556D01*
X0159573Y0017044D01*
X0160088Y0015800D01*
X0153457Y0015800D01*
X0150800Y0018457D01*
X0150800Y0018733D02*
X0159646Y0018733D01*
X0141039Y0018733D01*
X0142800Y0018733D01*
X0142800Y0018457D02*
X0140143Y0015800D01*
X0138302Y0015800D01*
X0138985Y0016083D01*
X0140617Y0017715D01*
X0141500Y0019846D01*
X0141500Y0028154D01*
X0140617Y0030285D01*
X0138985Y0031917D01*
X0136854Y0032800D01*
X0134546Y0032800D01*
X0132415Y0031917D01*
X0130783Y0030285D01*
X0129900Y0028154D01*
X0129900Y0019846D01*
X0130783Y0017715D01*
X0132415Y0016083D01*
X0133098Y0015800D01*
X0131757Y0015800D01*
X0123700Y0023857D01*
X0123700Y0028154D01*
X0122817Y0030285D01*
X0121900Y0031202D01*
X0121900Y0042398D01*
X0122817Y0043315D01*
X0123700Y0045446D01*
X0123700Y0053754D01*
X0122817Y0055885D01*
X0121185Y0057517D01*
X0120502Y0057800D01*
X0132240Y0057800D01*
X0131917Y0057019D01*
X0130783Y0055885D01*
X0129900Y0053754D01*
X0129900Y0045446D01*
X0130783Y0043315D01*
X0132415Y0041683D01*
X0134546Y0040800D01*
X0136854Y0040800D01*
X0138985Y0041683D01*
X0140617Y0043315D01*
X0141500Y0045446D01*
X0141500Y0053655D01*
X0141629Y0053345D01*
X0142800Y0052173D01*
X0142800Y0018457D01*
X0141478Y0017134D02*
X0140037Y0017134D01*
X0159573Y0017134D01*
X0152122Y0017134D01*
X0150800Y0020332D02*
X0160530Y0020332D01*
X0141500Y0020332D01*
X0142800Y0020332D01*
X0141500Y0019846D02*
X0140617Y0017715D01*
X0138985Y0016083D01*
X0136854Y0015200D01*
X0134546Y0015200D01*
X0132415Y0016083D01*
X0130783Y0017715D01*
X0129900Y0019846D01*
X0129900Y0028154D01*
X0130783Y0030285D01*
X0132415Y0031917D01*
X0134546Y0032800D01*
X0136854Y0032800D01*
X0138985Y0031917D01*
X0140617Y0030285D01*
X0141500Y0028154D01*
X0141500Y0019846D01*
X0141500Y0021930D02*
X0142800Y0021930D01*
X0141500Y0021930D02*
X0160574Y0021930D01*
X0150800Y0021930D01*
X0150800Y0023529D02*
X0160574Y0023529D01*
X0141500Y0023529D01*
X0142800Y0023529D01*
X0142800Y0025127D02*
X0141500Y0025127D01*
X0160574Y0025127D01*
X0150800Y0025127D01*
X0150800Y0026726D02*
X0161056Y0026726D01*
X0141500Y0026726D01*
X0142800Y0026726D01*
X0142800Y0028324D02*
X0141429Y0028324D01*
X0161553Y0028324D01*
X0150800Y0028324D01*
X0150800Y0029923D02*
X0161254Y0029923D01*
X0140767Y0029923D01*
X0142800Y0029923D01*
X0142800Y0031521D02*
X0139381Y0031521D01*
X0161654Y0031521D01*
X0150800Y0031521D01*
X0150800Y0033120D02*
X0161254Y0033120D01*
X0006600Y0033120D01*
X0023900Y0033120D01*
X0023900Y0034718D02*
X0006600Y0034718D01*
X0161320Y0034718D01*
X0150800Y0034718D01*
X0150800Y0036317D02*
X0162193Y0036317D01*
X0006600Y0036317D01*
X0023900Y0036317D01*
X0023900Y0037915D02*
X0006600Y0037915D01*
X0192803Y0037915D01*
X0150800Y0037915D01*
X0150800Y0039514D02*
X0205820Y0039514D01*
X0006600Y0039514D01*
X0023900Y0039514D01*
X0023900Y0041112D02*
X0006600Y0041112D01*
X0043793Y0041112D01*
X0031900Y0041112D01*
X0031900Y0042398D02*
X0032817Y0043315D01*
X0033700Y0045446D01*
X0033700Y0049743D01*
X0060191Y0076234D01*
X0060800Y0077704D01*
X0060800Y0090385D01*
X0062750Y0092335D01*
X0062750Y0095093D01*
X0065457Y0097800D01*
X0085143Y0097800D01*
X0095339Y0087605D01*
X0095339Y0082700D01*
X0095765Y0081671D01*
X0096553Y0080883D01*
X0096753Y0080800D01*
X0072104Y0080800D01*
X0070634Y0080191D01*
X0069509Y0079066D01*
X0048260Y0057817D01*
X0046854Y0058400D01*
X0044546Y0058400D01*
X0042415Y0057517D01*
X0040783Y0055885D01*
X0039900Y0053754D01*
X0039900Y0045446D01*
X0040783Y0043315D01*
X0042415Y0041683D01*
X0044546Y0040800D01*
X0046854Y0040800D01*
X0048985Y0041683D01*
X0050617Y0043315D01*
X0051500Y0045446D01*
X0051500Y0049743D01*
X0052100Y0050343D01*
X0052100Y0045446D01*
X0052983Y0043315D01*
X0053900Y0042398D01*
X0053900Y0031202D01*
X0052983Y0030285D01*
X0052100Y0028154D01*
X0052100Y0019846D01*
X0052983Y0017715D01*
X0054615Y0016083D01*
X0055298Y0015800D01*
X0048302Y0015800D01*
X0048985Y0016083D01*
X0050617Y0017715D01*
X0051500Y0019846D01*
X0051500Y0028154D01*
X0050617Y0030285D01*
X0048985Y0031917D01*
X0046854Y0032800D01*
X0044546Y0032800D01*
X0042415Y0031917D01*
X0040783Y0030285D01*
X0039900Y0028154D01*
X0039900Y0019846D01*
X0040783Y0017715D01*
X0042415Y0016083D01*
X0043098Y0015800D01*
X0041757Y0015800D01*
X0033700Y0023857D01*
X0033700Y0028154D01*
X0032817Y0030285D01*
X0031900Y0031202D01*
X0031900Y0042398D01*
X0032213Y0042711D02*
X0041387Y0042711D01*
X0030713Y0042711D01*
X0030416Y0042495D02*
X0031027Y0042939D01*
X0031561Y0043473D01*
X0032005Y0044084D01*
X0032348Y0044757D01*
X0032582Y0045476D01*
X0032700Y0046222D01*
X0032700Y0049400D01*
X0028100Y0049400D01*
X0028100Y0049800D01*
X0027700Y0049800D01*
X0027700Y0057400D01*
X0027522Y0057400D01*
X0026776Y0057282D01*
X0026057Y0057048D01*
X0025384Y0056705D01*
X0024773Y0056261D01*
X0024239Y0055727D01*
X0023795Y0055116D01*
X0023452Y0054443D01*
X0023218Y0053724D01*
X0023100Y0052978D01*
X0023100Y0049800D01*
X0027700Y0049800D01*
X0027700Y0049400D01*
X0023100Y0049400D01*
X0023100Y0046222D01*
X0023218Y0045476D01*
X0023452Y0044757D01*
X0023795Y0044084D01*
X0024239Y0043473D01*
X0024773Y0042939D01*
X0025384Y0042495D01*
X0026057Y0042152D01*
X0026776Y0041918D01*
X0027522Y0041800D01*
X0027700Y0041800D01*
X0027700Y0049400D01*
X0028100Y0049400D01*
X0028100Y0041800D01*
X0028278Y0041800D01*
X0029024Y0041918D01*
X0029743Y0042152D01*
X0030416Y0042495D01*
X0028100Y0042711D02*
X0027700Y0042711D01*
X0027700Y0044309D02*
X0028100Y0044309D01*
X0028100Y0045908D02*
X0027700Y0045908D01*
X0027700Y0047506D02*
X0028100Y0047506D01*
X0028100Y0049105D02*
X0027700Y0049105D01*
X0028100Y0049800D02*
X0032700Y0049800D01*
X0032700Y0052978D01*
X0032582Y0053724D01*
X0032348Y0054443D01*
X0032005Y0055116D01*
X0031561Y0055727D01*
X0031027Y0056261D01*
X0030416Y0056705D01*
X0029743Y0057048D01*
X0029024Y0057282D01*
X0028278Y0057400D01*
X0028100Y0057400D01*
X0028100Y0049800D01*
X0028100Y0050703D02*
X0027700Y0050703D01*
X0027700Y0052302D02*
X0028100Y0052302D01*
X0028100Y0053900D02*
X0027700Y0053900D01*
X0027700Y0055499D02*
X0028100Y0055499D01*
X0028100Y0057097D02*
X0027700Y0057097D01*
X0026208Y0057097D02*
X0006600Y0057097D01*
X0024195Y0057097D01*
X0024615Y0057517D02*
X0022983Y0055885D01*
X0022100Y0053754D01*
X0022100Y0045446D01*
X0022983Y0043315D01*
X0023900Y0042398D01*
X0023900Y0031202D01*
X0022983Y0030285D01*
X0022100Y0028154D01*
X0022100Y0019846D01*
X0022983Y0017715D01*
X0024615Y0016083D01*
X0026746Y0015200D01*
X0029054Y0015200D01*
X0030460Y0015783D01*
X0037834Y0008409D01*
X0039304Y0007800D01*
X0142596Y0007800D01*
X0144066Y0008409D01*
X0146800Y0011143D01*
X0148409Y0009534D01*
X0149534Y0008409D01*
X0151004Y0007800D01*
X0262596Y0007800D01*
X0264066Y0008409D01*
X0294066Y0038409D01*
X0295191Y0039534D01*
X0295701Y0040765D01*
X0295701Y0006600D01*
X0006600Y0006600D01*
X0006600Y0010969D01*
X0008569Y0009000D01*
X0015031Y0009000D01*
X0019600Y0013569D01*
X0019600Y0020031D01*
X0015031Y0024600D01*
X0008569Y0024600D01*
X0006600Y0022631D01*
X0006600Y0180969D01*
X0008569Y0179000D01*
X0015031Y0179000D01*
X0019600Y0183569D01*
X0019600Y0190031D01*
X0015031Y0194600D01*
X0008569Y0194600D01*
X0006600Y0192631D01*
X0006600Y0196961D01*
X0295701Y0196961D01*
X0295701Y0072835D01*
X0295191Y0074066D01*
X0291200Y0078057D01*
X0291200Y0127675D01*
X0290530Y0129292D01*
X0289292Y0130530D01*
X0286043Y0133780D01*
X0286043Y0148730D01*
X0287005Y0149692D01*
X0287968Y0152017D01*
X0287968Y0161583D01*
X0287005Y0163908D01*
X0285225Y0165687D01*
X0282901Y0166650D01*
X0280384Y0166650D01*
X0278060Y0165687D01*
X0276280Y0163908D01*
X0275318Y0161583D01*
X0275318Y0152017D01*
X0276280Y0149692D01*
X0277243Y0148730D01*
X0277243Y0131082D01*
X0277912Y0129465D01*
X0282400Y0124977D01*
X0282400Y0123040D01*
X0282043Y0123659D01*
X0279659Y0126043D01*
X0276741Y0127728D01*
X0273485Y0128600D01*
X0270115Y0128600D01*
X0266859Y0127728D01*
X0263941Y0126043D01*
X0261557Y0123659D01*
X0259872Y0120741D01*
X0259000Y0117485D01*
X0259000Y0114115D01*
X0259872Y0110859D01*
X0261557Y0107941D01*
X0263941Y0105557D01*
X0266859Y0103872D01*
X0270115Y0103000D01*
X0273485Y0103000D01*
X0276741Y0103872D01*
X0279659Y0105557D01*
X0282043Y0107941D01*
X0282400Y0108560D01*
X0282400Y0078623D01*
X0269547Y0065769D01*
X0268345Y0065271D01*
X0266800Y0063727D01*
X0265255Y0065271D01*
X0263013Y0066200D01*
X0260587Y0066200D01*
X0259198Y0065625D01*
X0256200Y0068623D01*
X0256200Y0124977D01*
X0265688Y0134465D01*
X0266357Y0136082D01*
X0266357Y0148730D01*
X0267320Y0149692D01*
X0268282Y0152017D01*
X0268282Y0161583D01*
X0267320Y0163908D01*
X0265540Y0165687D01*
X0263216Y0166650D01*
X0260699Y0166650D01*
X0258375Y0165687D01*
X0256595Y0163908D01*
X0255632Y0161583D01*
X0255632Y0152017D01*
X0256595Y0149692D01*
X0257557Y0148730D01*
X0257557Y0138780D01*
X0249308Y0130530D01*
X0248070Y0129292D01*
X0247400Y0127675D01*
X0247400Y0065925D01*
X0248070Y0064308D01*
X0255700Y0056677D01*
X0255700Y0052287D01*
X0256629Y0050045D01*
X0258345Y0048329D01*
X0260587Y0047400D01*
X0263013Y0047400D01*
X0265255Y0048329D01*
X0266800Y0049873D01*
X0268345Y0048329D01*
X0270587Y0047400D01*
X0273013Y0047400D01*
X0275255Y0048329D01*
X0276800Y0049873D01*
X0277400Y0049273D01*
X0277400Y0048623D01*
X0269977Y0041200D01*
X0246200Y0041200D01*
X0246200Y0053563D01*
X0247200Y0054563D01*
X0247200Y0059037D01*
X0246200Y0060037D01*
X0246200Y0073563D01*
X0247200Y0074563D01*
X0247200Y0079037D01*
X0246200Y0080037D01*
X0246200Y0093563D01*
X0247200Y0094563D01*
X0247200Y0099037D01*
X0246200Y0100037D01*
X0246200Y0113563D01*
X0247200Y0114563D01*
X0247200Y0119037D01*
X0246200Y0120037D01*
X0246200Y0133563D01*
X0247200Y0134563D01*
X0247200Y0139037D01*
X0246200Y0140037D01*
X0246200Y0153563D01*
X0247200Y0154563D01*
X0247200Y0159037D01*
X0246200Y0160037D01*
X0246200Y0173563D01*
X0247200Y0174563D01*
X0247200Y0179037D01*
X0244037Y0182200D01*
X0242623Y0182200D01*
X0234292Y0190530D01*
X0232675Y0191200D01*
X0220925Y0191200D01*
X0219308Y0190530D01*
X0218070Y0189292D01*
X0209977Y0181200D01*
X0050925Y0181200D01*
X0049308Y0180530D01*
X0048070Y0179292D01*
X0038070Y0169292D01*
X0037400Y0167675D01*
X0037400Y0155925D01*
X0038070Y0154308D01*
X0039308Y0153070D01*
X0046308Y0146070D01*
X0047925Y0145400D01*
X0052400Y0145400D01*
X0052400Y0112815D01*
X0051756Y0112170D01*
X0050850Y0109984D01*
X0050850Y0107616D01*
X0051756Y0105430D01*
X0053430Y0103756D01*
X0055616Y0102850D01*
X0057984Y0102850D01*
X0060048Y0103705D01*
X0057093Y0100750D01*
X0054335Y0100750D01*
X0050850Y0097265D01*
X0050850Y0092335D01*
X0052800Y0090385D01*
X0052800Y0080157D01*
X0030460Y0057817D01*
X0029054Y0058400D01*
X0026746Y0058400D01*
X0024615Y0057517D01*
X0024073Y0055499D02*
X0006600Y0055499D01*
X0022823Y0055499D01*
X0023275Y0053900D02*
X0006600Y0053900D01*
X0022161Y0053900D01*
X0022100Y0052302D02*
X0006600Y0052302D01*
X0023100Y0052302D01*
X0023100Y0050703D02*
X0006600Y0050703D01*
X0022100Y0050703D01*
X0022100Y0049105D02*
X0006600Y0049105D01*
X0023100Y0049105D01*
X0023100Y0047506D02*
X0006600Y0047506D01*
X0022100Y0047506D01*
X0022100Y0045908D02*
X0006600Y0045908D01*
X0023150Y0045908D01*
X0023680Y0044309D02*
X0006600Y0044309D01*
X0022571Y0044309D01*
X0023587Y0042711D02*
X0006600Y0042711D01*
X0025087Y0042711D01*
X0032120Y0044309D02*
X0040371Y0044309D01*
X0033229Y0044309D01*
X0033700Y0045908D02*
X0039900Y0045908D01*
X0032650Y0045908D01*
X0032700Y0047506D02*
X0039900Y0047506D01*
X0033700Y0047506D01*
X0033700Y0049105D02*
X0039900Y0049105D01*
X0032700Y0049105D01*
X0032700Y0050703D02*
X0039900Y0050703D01*
X0034660Y0050703D01*
X0036259Y0052302D02*
X0039900Y0052302D01*
X0032700Y0052302D01*
X0032525Y0053900D02*
X0039961Y0053900D01*
X0037857Y0053900D01*
X0039900Y0053754D02*
X0040783Y0055885D01*
X0042415Y0057517D01*
X0044546Y0058400D01*
X0046854Y0058400D01*
X0048260Y0057817D01*
X0069509Y0079066D01*
X0070634Y0080191D01*
X0072104Y0080800D01*
X0107776Y0080800D01*
X0105824Y0080800D01*
X0106024Y0080883D01*
X0106800Y0081659D01*
X0107576Y0080883D01*
X0107776Y0080800D01*
X0107576Y0080883D01*
X0106788Y0081671D01*
X0106362Y0082700D01*
X0106362Y0090900D01*
X0106788Y0091929D01*
X0107576Y0092717D01*
X0106800Y0091941D01*
X0106024Y0092717D01*
X0104995Y0093143D01*
X0101114Y0093143D01*
X0090800Y0103457D01*
X0090800Y0130655D01*
X0100602Y0140457D01*
X0104995Y0140457D01*
X0106024Y0140883D01*
X0106800Y0141659D01*
X0107576Y0140883D01*
X0108312Y0140578D01*
X0108312Y0133469D01*
X0107486Y0132643D01*
X0105538Y0132643D01*
X0103207Y0131678D01*
X0101422Y0129893D01*
X0100457Y0127562D01*
X0100457Y0125038D01*
X0101422Y0122707D01*
X0103207Y0120922D01*
X0105538Y0119957D01*
X0108062Y0119957D01*
X0110393Y0120922D01*
X0111771Y0122300D01*
X0135643Y0122300D01*
X0140700Y0117243D01*
X0140700Y0115587D01*
X0141629Y0113345D01*
X0143173Y0111800D01*
X0142673Y0111300D01*
X0111771Y0111300D01*
X0110393Y0112678D01*
X0108062Y0113643D01*
X0105538Y0113643D01*
X0103207Y0112678D01*
X0101422Y0110893D01*
X0100457Y0108562D01*
X0100457Y0106038D01*
X0101422Y0103707D01*
X0103207Y0101922D01*
X0105538Y0100957D01*
X0107486Y0100957D01*
X0108312Y0100131D01*
X0108312Y0093022D01*
X0107576Y0092717D01*
X0108312Y0093022D01*
X0108312Y0100131D01*
X0107486Y0100957D01*
X0105538Y0100957D01*
X0103207Y0101922D01*
X0101422Y0103707D01*
X0100457Y0106038D01*
X0100457Y0108562D01*
X0101422Y0110893D01*
X0103207Y0112678D01*
X0105538Y0113643D01*
X0108062Y0113643D01*
X0110393Y0112678D01*
X0111771Y0111300D01*
X0142673Y0111300D01*
X0143173Y0111800D01*
X0141629Y0113345D01*
X0140700Y0115587D01*
X0140700Y0117243D01*
X0135643Y0122300D01*
X0111771Y0122300D01*
X0110393Y0120922D01*
X0108062Y0119957D01*
X0105538Y0119957D01*
X0103207Y0120922D01*
X0101422Y0122707D01*
X0100457Y0125038D01*
X0100457Y0127562D01*
X0101422Y0129893D01*
X0103207Y0131678D01*
X0105538Y0132643D01*
X0107486Y0132643D01*
X0108312Y0133469D01*
X0108312Y0140578D01*
X0107576Y0140883D01*
X0106788Y0141671D01*
X0106362Y0142700D01*
X0106362Y0150900D01*
X0106788Y0151929D01*
X0107576Y0152717D01*
X0108605Y0153143D01*
X0116018Y0153143D01*
X0110454Y0153143D01*
X0113358Y0156047D01*
X0116570Y0156047D01*
X0116800Y0156143D01*
X0117030Y0156047D01*
X0120242Y0156047D01*
X0132881Y0143409D01*
X0134351Y0142800D01*
X0135942Y0142800D01*
X0140759Y0142800D01*
X0141126Y0141914D01*
X0141914Y0141126D01*
X0142328Y0140955D01*
X0141629Y0140255D01*
X0140700Y0138013D01*
X0140700Y0135587D01*
X0141629Y0133345D01*
X0143173Y0131800D01*
X0141629Y0130255D01*
X0140859Y0128398D01*
X0139566Y0129691D01*
X0138096Y0130300D01*
X0116015Y0130300D01*
X0116312Y0131016D01*
X0116312Y0140578D01*
X0117047Y0140883D01*
X0117835Y0141671D01*
X0118261Y0142700D01*
X0118261Y0150900D01*
X0117835Y0151929D01*
X0117047Y0152717D01*
X0116018Y0153143D01*
X0117047Y0152717D01*
X0117835Y0151929D01*
X0118261Y0150900D01*
X0118261Y0142700D01*
X0117835Y0141671D01*
X0117047Y0140883D01*
X0116312Y0140578D01*
X0116312Y0131016D01*
X0116015Y0130300D01*
X0138096Y0130300D01*
X0139566Y0129691D01*
X0140859Y0128398D01*
X0141629Y0130255D01*
X0143173Y0131800D01*
X0141629Y0133345D01*
X0140700Y0135587D01*
X0140700Y0138013D01*
X0141629Y0140255D01*
X0142328Y0140955D01*
X0141914Y0141126D01*
X0141126Y0141914D01*
X0140759Y0142800D01*
X0134351Y0142800D01*
X0132881Y0143409D01*
X0120242Y0156047D01*
X0117030Y0156047D01*
X0116001Y0156474D01*
X0115428Y0157047D01*
X0113933Y0157047D01*
X0113933Y0161320D01*
X0112974Y0161320D01*
X0112974Y0157047D01*
X0110658Y0157047D01*
X0110200Y0157170D01*
X0109789Y0157407D01*
X0109454Y0157742D01*
X0109217Y0158152D01*
X0109094Y0158610D01*
X0109094Y0161320D01*
X0112974Y0161320D01*
X0112974Y0162280D01*
X0112974Y0166553D01*
X0110658Y0166553D01*
X0110200Y0166430D01*
X0109789Y0166193D01*
X0109454Y0165858D01*
X0109217Y0165448D01*
X0109094Y0164990D01*
X0109094Y0162280D01*
X0112974Y0162280D01*
X0113933Y0162280D01*
X0113933Y0166553D01*
X0115300Y0166553D01*
X0115300Y0167643D01*
X0115300Y0167553D01*
X0110338Y0167553D01*
X0109308Y0167126D01*
X0108521Y0166339D01*
X0108094Y0165310D01*
X0108094Y0162098D01*
X0099140Y0153143D01*
X0097582Y0153143D01*
X0096553Y0152717D01*
X0095765Y0151929D01*
X0095339Y0150900D01*
X0095339Y0146507D01*
X0083409Y0134578D01*
X0082800Y0133107D01*
X0082800Y0105800D01*
X0063004Y0105800D01*
X0061656Y0105242D01*
X0061844Y0105430D01*
X0062750Y0107616D01*
X0062750Y0109984D01*
X0061844Y0112170D01*
X0061200Y0112815D01*
X0061200Y0145785D01*
X0061844Y0146430D01*
X0062750Y0148616D01*
X0062750Y0150984D01*
X0061844Y0153170D01*
X0060170Y0154844D01*
X0057984Y0155750D01*
X0055616Y0155750D01*
X0053430Y0154844D01*
X0052785Y0154200D01*
X0050623Y0154200D01*
X0046200Y0158623D01*
X0046200Y0164977D01*
X0053623Y0172400D01*
X0101743Y0172400D01*
X0097143Y0167800D01*
X0061215Y0167800D01*
X0059265Y0169750D01*
X0054335Y0169750D01*
X0050850Y0166265D01*
X0050850Y0161335D01*
X0054335Y0157850D01*
X0059265Y0157850D01*
X0061215Y0159800D01*
X0099596Y0159800D01*
X0101066Y0160409D01*
X0108457Y0167800D01*
X0115143Y0167800D01*
X0115300Y0167643D01*
X0115143Y0167800D01*
X0108457Y0167800D01*
X0101066Y0160409D01*
X0099596Y0159800D01*
X0061215Y0159800D01*
X0059265Y0157850D01*
X0054335Y0157850D01*
X0050850Y0161335D01*
X0050850Y0166265D01*
X0054335Y0169750D01*
X0059265Y0169750D01*
X0061215Y0167800D01*
X0097143Y0167800D01*
X0101743Y0172400D01*
X0053623Y0172400D01*
X0046200Y0164977D01*
X0046200Y0158623D01*
X0050623Y0154200D01*
X0052785Y0154200D01*
X0053430Y0154844D01*
X0055616Y0155750D01*
X0057984Y0155750D01*
X0060170Y0154844D01*
X0061844Y0153170D01*
X0062750Y0150984D01*
X0062750Y0148616D01*
X0061844Y0146430D01*
X0061200Y0145785D01*
X0061200Y0112815D01*
X0061844Y0112170D01*
X0062750Y0109984D01*
X0062750Y0107616D01*
X0061844Y0105430D01*
X0060170Y0103756D01*
X0057984Y0102850D01*
X0055616Y0102850D01*
X0053430Y0103756D01*
X0051756Y0105430D01*
X0050850Y0107616D01*
X0050850Y0109984D01*
X0051756Y0112170D01*
X0052400Y0112815D01*
X0052400Y0145400D01*
X0047925Y0145400D01*
X0046308Y0146070D01*
X0039308Y0153070D01*
X0038070Y0154308D01*
X0037400Y0155925D01*
X0037400Y0167675D01*
X0038070Y0169292D01*
X0048070Y0179292D01*
X0049308Y0180530D01*
X0050925Y0181200D01*
X0209977Y0181200D01*
X0218070Y0189292D01*
X0219308Y0190530D01*
X0220925Y0191200D01*
X0232675Y0191200D01*
X0234292Y0190530D01*
X0242623Y0182200D01*
X0244037Y0182200D01*
X0247200Y0179037D01*
X0247200Y0174563D01*
X0246200Y0173563D01*
X0246200Y0160037D01*
X0247200Y0159037D01*
X0247200Y0154563D01*
X0246200Y0153563D01*
X0246200Y0140037D01*
X0247200Y0139037D01*
X0247200Y0134563D01*
X0246200Y0133563D01*
X0246200Y0120037D01*
X0247200Y0119037D01*
X0247200Y0114563D01*
X0246200Y0113563D01*
X0246200Y0100037D01*
X0247200Y0099037D01*
X0247200Y0094563D01*
X0246200Y0093563D01*
X0246200Y0080037D01*
X0247200Y0079037D01*
X0247200Y0074563D01*
X0246200Y0073563D01*
X0246200Y0060037D01*
X0247200Y0059037D01*
X0247200Y0054563D01*
X0246200Y0053563D01*
X0246200Y0041200D01*
X0269977Y0041200D01*
X0277400Y0048623D01*
X0277400Y0049273D01*
X0276629Y0050045D01*
X0276241Y0050981D01*
X0276162Y0050827D01*
X0275690Y0050178D01*
X0275122Y0049610D01*
X0274473Y0049138D01*
X0273758Y0048774D01*
X0272994Y0048526D01*
X0272201Y0048400D01*
X0272100Y0048400D01*
X0272100Y0056500D01*
X0271500Y0056500D01*
X0271500Y0048400D01*
X0271399Y0048400D01*
X0270606Y0048526D01*
X0269842Y0048774D01*
X0269127Y0049138D01*
X0268478Y0049610D01*
X0267910Y0050178D01*
X0267438Y0050827D01*
X0267359Y0050981D01*
X0266971Y0050045D01*
X0265255Y0048329D01*
X0263013Y0047400D01*
X0260587Y0047400D01*
X0258345Y0048329D01*
X0256629Y0050045D01*
X0255700Y0052287D01*
X0255700Y0056677D01*
X0248070Y0064308D01*
X0247400Y0065925D01*
X0247400Y0127675D01*
X0248070Y0129292D01*
X0249308Y0130530D01*
X0257557Y0138780D01*
X0257557Y0148730D01*
X0256595Y0149692D01*
X0255632Y0152017D01*
X0255632Y0161583D01*
X0256595Y0163908D01*
X0258375Y0165687D01*
X0260699Y0166650D01*
X0263216Y0166650D01*
X0265540Y0165687D01*
X0267320Y0163908D01*
X0268282Y0161583D01*
X0268282Y0152017D01*
X0267320Y0149692D01*
X0266357Y0148730D01*
X0266357Y0136082D01*
X0265688Y0134465D01*
X0256200Y0124977D01*
X0256200Y0068623D01*
X0259198Y0065625D01*
X0260587Y0066200D01*
X0263013Y0066200D01*
X0265255Y0065271D01*
X0266971Y0063555D01*
X0267359Y0062618D01*
X0267438Y0062773D01*
X0267910Y0063422D01*
X0268478Y0063990D01*
X0269127Y0064462D01*
X0269842Y0064826D01*
X0270606Y0065074D01*
X0271399Y0065200D01*
X0271500Y0065200D01*
X0271500Y0057100D01*
X0272100Y0057100D01*
X0272100Y0065200D01*
X0272201Y0065200D01*
X0272994Y0065074D01*
X0273758Y0064826D01*
X0274473Y0064462D01*
X0275122Y0063990D01*
X0275690Y0063422D01*
X0276162Y0062773D01*
X0276241Y0062618D01*
X0276629Y0063555D01*
X0278345Y0065271D01*
X0280587Y0066200D01*
X0283013Y0066200D01*
X0282423Y0066200D01*
X0287083Y0070860D01*
X0287800Y0070143D01*
X0287800Y0061555D01*
X0286971Y0063555D01*
X0285255Y0065271D01*
X0283013Y0066200D01*
X0285255Y0065271D01*
X0286971Y0063555D01*
X0287900Y0061313D01*
X0287900Y0052287D01*
X0286971Y0050045D01*
X0286200Y0049273D01*
X0286200Y0045925D01*
X0285530Y0044308D01*
X0275530Y0034308D01*
X0274292Y0033070D01*
X0272675Y0032400D01*
X0245037Y0032400D01*
X0244037Y0031400D01*
X0239563Y0031400D01*
X0236800Y0034163D01*
X0234037Y0031400D01*
X0229563Y0031400D01*
X0226400Y0034563D01*
X0226400Y0036543D01*
X0215256Y0047687D01*
X0215079Y0047261D01*
X0214292Y0046474D01*
X0213262Y0046047D01*
X0207030Y0046047D01*
X0206800Y0046143D01*
X0206570Y0046047D01*
X0200338Y0046047D01*
X0199308Y0046474D01*
X0198521Y0047261D01*
X0198094Y0048290D01*
X0198094Y0049849D01*
X0185143Y0062800D01*
X0181427Y0062800D01*
X0180427Y0061800D01*
X0181971Y0060255D01*
X0182900Y0058013D01*
X0182900Y0055587D01*
X0181971Y0053345D01*
X0180255Y0051629D01*
X0178013Y0050700D01*
X0175587Y0050700D01*
X0173345Y0051629D01*
X0171629Y0053345D01*
X0170700Y0055587D01*
X0170700Y0058013D01*
X0171629Y0060255D01*
X0173173Y0061800D01*
X0171629Y0063345D01*
X0170700Y0065587D01*
X0170700Y0068013D01*
X0171629Y0070255D01*
X0173173Y0071800D01*
X0171629Y0073345D01*
X0170700Y0075587D01*
X0170700Y0078013D01*
X0171629Y0080255D01*
X0173173Y0081800D01*
X0171629Y0083345D01*
X0170700Y0085587D01*
X0170700Y0088013D01*
X0171629Y0090255D01*
X0173173Y0091800D01*
X0171629Y0093345D01*
X0170700Y0095587D01*
X0170700Y0098013D01*
X0171629Y0100255D01*
X0173173Y0101800D01*
X0171629Y0103345D01*
X0170700Y0105587D01*
X0170700Y0108013D01*
X0171629Y0110255D01*
X0173173Y0111800D01*
X0171629Y0113345D01*
X0170700Y0115587D01*
X0170700Y0118013D01*
X0171629Y0120255D01*
X0173173Y0121800D01*
X0171629Y0123345D01*
X0170700Y0125587D01*
X0170700Y0128013D01*
X0171629Y0130255D01*
X0173173Y0131800D01*
X0171629Y0133345D01*
X0170700Y0135587D01*
X0170700Y0138013D01*
X0171629Y0140255D01*
X0173173Y0141800D01*
X0172173Y0142800D01*
X0152841Y0142800D01*
X0152474Y0141914D01*
X0151686Y0141126D01*
X0151272Y0140955D01*
X0151971Y0140255D01*
X0152900Y0138013D01*
X0152900Y0135587D01*
X0151971Y0133345D01*
X0150427Y0131800D01*
X0151971Y0130255D01*
X0152900Y0128013D01*
X0152900Y0125587D01*
X0151971Y0123345D01*
X0150427Y0121800D01*
X0151971Y0120255D01*
X0152900Y0118013D01*
X0152900Y0115587D01*
X0151971Y0113345D01*
X0150427Y0111800D01*
X0151971Y0110255D01*
X0152900Y0108013D01*
X0152900Y0105587D01*
X0151971Y0103345D01*
X0150427Y0101800D01*
X0151971Y0100255D01*
X0152900Y0098013D01*
X0152900Y0095587D01*
X0151971Y0093345D01*
X0150427Y0091800D01*
X0151971Y0090255D01*
X0152900Y0088013D01*
X0152900Y0085587D01*
X0151971Y0083345D01*
X0150427Y0081800D01*
X0151971Y0080255D01*
X0152900Y0078013D01*
X0152900Y0075587D01*
X0151971Y0073345D01*
X0150427Y0071800D01*
X0151971Y0070255D01*
X0152900Y0068013D01*
X0152900Y0065587D01*
X0151971Y0063345D01*
X0150255Y0061629D01*
X0149318Y0061241D01*
X0149473Y0061162D01*
X0150122Y0060690D01*
X0150690Y0060122D01*
X0151162Y0059473D01*
X0151526Y0058758D01*
X0151774Y0057994D01*
X0151900Y0057201D01*
X0151900Y0057100D01*
X0147100Y0057100D01*
X0147100Y0056500D01*
X0151900Y0056500D01*
X0151900Y0056399D01*
X0151774Y0055606D01*
X0151526Y0054842D01*
X0151162Y0054127D01*
X0150690Y0053478D01*
X0150122Y0052910D01*
X0149473Y0052438D01*
X0148758Y0052074D01*
X0147994Y0051826D01*
X0147201Y0051700D01*
X0147100Y0051700D01*
X0147100Y0056500D01*
X0146500Y0056500D01*
X0146500Y0051700D01*
X0146399Y0051700D01*
X0145606Y0051826D01*
X0144842Y0052074D01*
X0144127Y0052438D01*
X0143478Y0052910D01*
X0142910Y0053478D01*
X0142438Y0054127D01*
X0142074Y0054842D01*
X0141826Y0055606D01*
X0141749Y0056092D01*
X0140888Y0055231D01*
X0141500Y0053754D01*
X0141500Y0045446D01*
X0140617Y0043315D01*
X0138985Y0041683D01*
X0136854Y0040800D01*
X0134546Y0040800D01*
X0132415Y0041683D01*
X0130783Y0043315D01*
X0129900Y0045446D01*
X0129900Y0053754D01*
X0130783Y0055885D01*
X0131917Y0057019D01*
X0132240Y0057800D01*
X0113457Y0057800D01*
X0115298Y0057800D01*
X0114615Y0057517D01*
X0112983Y0055885D01*
X0112100Y0053754D01*
X0112100Y0045446D01*
X0112983Y0043315D01*
X0113900Y0042398D01*
X0113900Y0031202D01*
X0112983Y0030285D01*
X0112100Y0028154D01*
X0112100Y0019846D01*
X0112983Y0017715D01*
X0114615Y0016083D01*
X0115298Y0015800D01*
X0108302Y0015800D01*
X0108985Y0016083D01*
X0110617Y0017715D01*
X0111500Y0019846D01*
X0111500Y0028154D01*
X0110617Y0030285D01*
X0108985Y0031917D01*
X0106854Y0032800D01*
X0104546Y0032800D01*
X0102415Y0031917D01*
X0100783Y0030285D01*
X0099900Y0028154D01*
X0099900Y0019846D01*
X0100783Y0017715D01*
X0102415Y0016083D01*
X0103098Y0015800D01*
X0101757Y0015800D01*
X0093700Y0023857D01*
X0093700Y0028154D01*
X0092817Y0030285D01*
X0091900Y0031202D01*
X0091900Y0042398D01*
X0092817Y0043315D01*
X0093700Y0045446D01*
X0093700Y0053754D01*
X0092817Y0055885D01*
X0091185Y0057517D01*
X0089056Y0058399D01*
X0098457Y0067800D01*
X0122596Y0067800D01*
X0124066Y0068409D01*
X0138457Y0082800D01*
X0142173Y0082800D01*
X0143173Y0081800D01*
X0141629Y0080255D01*
X0140700Y0078013D01*
X0140700Y0076357D01*
X0130143Y0065800D01*
X0111004Y0065800D01*
X0109534Y0065191D01*
X0108409Y0064066D01*
X0102309Y0057966D01*
X0101917Y0057019D01*
X0100783Y0055885D01*
X0099900Y0053754D01*
X0099900Y0045446D01*
X0100783Y0043315D01*
X0102415Y0041683D01*
X0104546Y0040800D01*
X0106854Y0040800D01*
X0108985Y0041683D01*
X0110617Y0043315D01*
X0111500Y0045446D01*
X0111500Y0053754D01*
X0110888Y0055231D01*
X0113457Y0057800D01*
X0110888Y0055231D01*
X0111500Y0053754D01*
X0111500Y0045446D01*
X0110617Y0043315D01*
X0108985Y0041683D01*
X0106854Y0040800D01*
X0104546Y0040800D01*
X0102415Y0041683D01*
X0100783Y0043315D01*
X0099900Y0045446D01*
X0099900Y0053754D01*
X0100783Y0055885D01*
X0101917Y0057019D01*
X0102309Y0057966D01*
X0108409Y0064066D01*
X0109534Y0065191D01*
X0111004Y0065800D01*
X0130143Y0065800D01*
X0140700Y0076357D01*
X0140700Y0078013D01*
X0141629Y0080255D01*
X0143173Y0081800D01*
X0142173Y0082800D01*
X0138457Y0082800D01*
X0124066Y0068409D01*
X0122596Y0067800D01*
X0098457Y0067800D01*
X0087700Y0057043D01*
X0087700Y0049800D01*
X0088100Y0049800D01*
X0088100Y0057400D01*
X0088278Y0057400D01*
X0089024Y0057282D01*
X0089743Y0057048D01*
X0090416Y0056705D01*
X0091027Y0056261D01*
X0091561Y0055727D01*
X0092005Y0055116D01*
X0092348Y0054443D01*
X0092582Y0053724D01*
X0092700Y0052978D01*
X0092700Y0049800D01*
X0088100Y0049800D01*
X0088100Y0049400D01*
X0092700Y0049400D01*
X0092700Y0046222D01*
X0092582Y0045476D01*
X0092348Y0044757D01*
X0092005Y0044084D01*
X0091561Y0043473D01*
X0091027Y0042939D01*
X0090416Y0042495D01*
X0089743Y0042152D01*
X0089024Y0041918D01*
X0088278Y0041800D01*
X0088100Y0041800D01*
X0088100Y0049400D01*
X0087700Y0049400D01*
X0087700Y0041800D01*
X0087522Y0041800D01*
X0086776Y0041918D01*
X0086057Y0042152D01*
X0085384Y0042495D01*
X0084773Y0042939D01*
X0084239Y0043473D01*
X0083795Y0044084D01*
X0083452Y0044757D01*
X0083218Y0045476D01*
X0083100Y0046222D01*
X0083100Y0049400D01*
X0087700Y0049400D01*
X0087700Y0049800D01*
X0083100Y0049800D01*
X0083100Y0052443D01*
X0081500Y0050843D01*
X0082100Y0051443D01*
X0082100Y0045446D01*
X0082983Y0043315D01*
X0083900Y0042398D01*
X0083900Y0031202D01*
X0082983Y0030285D01*
X0082100Y0028154D01*
X0082100Y0019846D01*
X0082983Y0017715D01*
X0084615Y0016083D01*
X0085298Y0015800D01*
X0078302Y0015800D01*
X0078985Y0016083D01*
X0080617Y0017715D01*
X0081500Y0019846D01*
X0081500Y0028154D01*
X0080617Y0030285D01*
X0078985Y0031917D01*
X0076854Y0032800D01*
X0074546Y0032800D01*
X0072415Y0031917D01*
X0070783Y0030285D01*
X0069900Y0028154D01*
X0069900Y0019846D01*
X0070783Y0017715D01*
X0072415Y0016083D01*
X0073098Y0015800D01*
X0068457Y0015800D01*
X0063700Y0020557D01*
X0063700Y0028154D01*
X0062817Y0030285D01*
X0061900Y0031202D01*
X0061900Y0042398D01*
X0062817Y0043315D01*
X0063700Y0045446D01*
X0063700Y0053754D01*
X0062817Y0055885D01*
X0061185Y0057517D01*
X0059834Y0058077D01*
X0074557Y0072800D01*
X0092143Y0072800D01*
X0077483Y0058139D01*
X0076854Y0058400D01*
X0074546Y0058400D01*
X0072415Y0057517D01*
X0070783Y0055885D01*
X0069900Y0053754D01*
X0069900Y0045446D01*
X0070783Y0043315D01*
X0072415Y0041683D01*
X0074546Y0040800D01*
X0076854Y0040800D01*
X0078985Y0041683D01*
X0080617Y0043315D01*
X0081500Y0045446D01*
X0081500Y0050843D01*
X0081500Y0045446D01*
X0080617Y0043315D01*
X0078985Y0041683D01*
X0076854Y0040800D01*
X0074546Y0040800D01*
X0072415Y0041683D01*
X0070783Y0043315D01*
X0069900Y0045446D01*
X0069900Y0053754D01*
X0070783Y0055885D01*
X0072415Y0057517D01*
X0074546Y0058400D01*
X0076854Y0058400D01*
X0077483Y0058139D01*
X0092143Y0072800D01*
X0074557Y0072800D01*
X0059035Y0057278D01*
X0059743Y0057048D01*
X0060416Y0056705D01*
X0061027Y0056261D01*
X0061561Y0055727D01*
X0062005Y0055116D01*
X0062348Y0054443D01*
X0062582Y0053724D01*
X0062700Y0052978D01*
X0062700Y0049800D01*
X0058100Y0049800D01*
X0058100Y0049400D01*
X0062700Y0049400D01*
X0062700Y0046222D01*
X0062582Y0045476D01*
X0062348Y0044757D01*
X0062005Y0044084D01*
X0061561Y0043473D01*
X0061027Y0042939D01*
X0060416Y0042495D01*
X0059743Y0042152D01*
X0059024Y0041918D01*
X0058278Y0041800D01*
X0058100Y0041800D01*
X0058100Y0049400D01*
X0057700Y0049400D01*
X0057700Y0041800D01*
X0057522Y0041800D01*
X0056776Y0041918D01*
X0056057Y0042152D01*
X0055384Y0042495D01*
X0054773Y0042939D01*
X0054239Y0043473D01*
X0053795Y0044084D01*
X0053452Y0044757D01*
X0053218Y0045476D01*
X0053100Y0046222D01*
X0053100Y0049400D01*
X0057700Y0049400D01*
X0057700Y0049800D01*
X0053100Y0049800D01*
X0053100Y0051343D01*
X0051500Y0049743D01*
X0051500Y0045446D01*
X0050617Y0043315D01*
X0048985Y0041683D01*
X0046854Y0040800D01*
X0044546Y0040800D01*
X0042415Y0041683D01*
X0040783Y0043315D01*
X0039900Y0045446D01*
X0039900Y0053754D01*
X0039456Y0055499D02*
X0040623Y0055499D01*
X0031727Y0055499D01*
X0029592Y0057097D02*
X0041995Y0057097D01*
X0041054Y0057097D01*
X0042653Y0058696D02*
X0049139Y0058696D01*
X0006600Y0058696D01*
X0031339Y0058696D01*
X0032937Y0060294D02*
X0006600Y0060294D01*
X0050737Y0060294D01*
X0044251Y0060294D01*
X0045850Y0061893D02*
X0052336Y0061893D01*
X0006600Y0061893D01*
X0034536Y0061893D01*
X0036134Y0063491D02*
X0006600Y0063491D01*
X0053934Y0063491D01*
X0047448Y0063491D01*
X0049047Y0065090D02*
X0055533Y0065090D01*
X0006600Y0065090D01*
X0037733Y0065090D01*
X0039332Y0066688D02*
X0006600Y0066688D01*
X0057132Y0066688D01*
X0050645Y0066688D01*
X0052244Y0068287D02*
X0058730Y0068287D01*
X0006600Y0068287D01*
X0040930Y0068287D01*
X0042529Y0069885D02*
X0006600Y0069885D01*
X0060329Y0069885D01*
X0053842Y0069885D01*
X0055441Y0071484D02*
X0061927Y0071484D01*
X0006600Y0071484D01*
X0044127Y0071484D01*
X0045726Y0073082D02*
X0006600Y0073082D01*
X0063526Y0073082D01*
X0057039Y0073082D01*
X0058638Y0074681D02*
X0065124Y0074681D01*
X0006600Y0074681D01*
X0047324Y0074681D01*
X0048923Y0076279D02*
X0006600Y0076279D01*
X0066723Y0076279D01*
X0060210Y0076279D01*
X0060800Y0077878D02*
X0068321Y0077878D01*
X0006600Y0077878D01*
X0050521Y0077878D01*
X0052120Y0079476D02*
X0006600Y0079476D01*
X0069920Y0079476D01*
X0060800Y0079476D01*
X0060800Y0081075D02*
X0096361Y0081075D01*
X0097033Y0081816D02*
X0097444Y0081579D01*
X0097902Y0081457D01*
X0100513Y0081457D01*
X0100513Y0086025D01*
X0096339Y0086025D01*
X0096339Y0083020D01*
X0096461Y0082562D01*
X0096698Y0082151D01*
X0097033Y0081816D01*
X0096431Y0082673D02*
X0006600Y0082673D01*
X0052800Y0082673D01*
X0052800Y0081075D02*
X0006600Y0081075D01*
X0107384Y0081075D01*
X0106216Y0081075D01*
X0105543Y0081816D02*
X0105878Y0082151D01*
X0106115Y0082562D01*
X0106238Y0083020D01*
X0106238Y0086025D01*
X0102063Y0086025D01*
X0102063Y0081457D01*
X0104675Y0081457D01*
X0105133Y0081579D01*
X0105543Y0081816D01*
X0106145Y0082673D02*
X0106373Y0082673D01*
X0106362Y0084272D02*
X0106238Y0084272D01*
X0106238Y0085870D02*
X0106362Y0085870D01*
X0106362Y0087469D02*
X0102063Y0087469D01*
X0102063Y0087575D02*
X0102063Y0086025D01*
X0100513Y0086025D01*
X0100513Y0087575D01*
X0096339Y0087575D01*
X0096339Y0090580D01*
X0096461Y0091038D01*
X0096698Y0091449D01*
X0097033Y0091784D01*
X0097444Y0092021D01*
X0097902Y0092143D01*
X0100513Y0092143D01*
X0100513Y0087575D01*
X0102063Y0087575D01*
X0102063Y0092143D01*
X0104675Y0092143D01*
X0105133Y0092021D01*
X0105543Y0091784D01*
X0105878Y0091449D01*
X0106115Y0091038D01*
X0106238Y0090580D01*
X0106238Y0087575D01*
X0102063Y0087575D01*
X0102063Y0089068D02*
X0100513Y0089068D01*
X0100513Y0090666D02*
X0102063Y0090666D01*
X0106215Y0090666D02*
X0106362Y0090666D01*
X0106362Y0089068D02*
X0106238Y0089068D01*
X0102063Y0085870D02*
X0100513Y0085870D01*
X0100513Y0084272D02*
X0102063Y0084272D01*
X0102063Y0082673D02*
X0100513Y0082673D01*
X0096339Y0084272D02*
X0006600Y0084272D01*
X0052800Y0084272D01*
X0052800Y0085870D02*
X0006600Y0085870D01*
X0096339Y0085870D01*
X0095339Y0085870D02*
X0060800Y0085870D01*
X0060800Y0084272D02*
X0095339Y0084272D01*
X0095349Y0082673D02*
X0060800Y0082673D01*
X0060800Y0087469D02*
X0095339Y0087469D01*
X0096339Y0089068D02*
X0006600Y0089068D01*
X0052800Y0089068D01*
X0052800Y0087469D02*
X0006600Y0087469D01*
X0100513Y0087469D01*
X0096362Y0090666D02*
X0059666Y0090666D01*
X0058850Y0089850D02*
X0061750Y0092750D01*
X0061750Y0094800D01*
X0061750Y0096850D01*
X0058850Y0099750D01*
X0056800Y0099750D01*
X0056800Y0094800D01*
X0056800Y0094800D01*
X0061750Y0094800D01*
X0056800Y0094800D01*
X0056800Y0094800D01*
X0056800Y0094800D01*
X0051850Y0094800D01*
X0051850Y0096850D01*
X0054750Y0099750D01*
X0056800Y0099750D01*
X0056800Y0094800D01*
X0056800Y0089850D01*
X0058850Y0089850D01*
X0056800Y0089850D02*
X0056800Y0094800D01*
X0056800Y0094800D01*
X0051850Y0094800D01*
X0051850Y0092750D01*
X0054750Y0089850D01*
X0056800Y0089850D01*
X0056800Y0090666D02*
X0056800Y0090666D01*
X0056800Y0092265D02*
X0056800Y0092265D01*
X0056800Y0093863D02*
X0056800Y0093863D01*
X0056800Y0095462D02*
X0056800Y0095462D01*
X0056800Y0097060D02*
X0056800Y0097060D01*
X0056800Y0098659D02*
X0056800Y0098659D01*
X0059942Y0098659D02*
X0108312Y0098659D01*
X0095598Y0098659D01*
X0094000Y0100257D02*
X0108186Y0100257D01*
X0006600Y0100257D01*
X0053843Y0100257D01*
X0053658Y0098659D02*
X0006600Y0098659D01*
X0052244Y0098659D01*
X0052060Y0097060D02*
X0006600Y0097060D01*
X0050850Y0097060D01*
X0050850Y0095462D02*
X0006600Y0095462D01*
X0051850Y0095462D01*
X0051850Y0093863D02*
X0006600Y0093863D01*
X0050850Y0093863D01*
X0050921Y0092265D02*
X0006600Y0092265D01*
X0052335Y0092265D01*
X0052519Y0090666D02*
X0006600Y0090666D01*
X0053934Y0090666D01*
X0060800Y0089068D02*
X0093876Y0089068D01*
X0092277Y0090666D02*
X0061081Y0090666D01*
X0061265Y0092265D02*
X0107124Y0092265D01*
X0106476Y0092265D01*
X0108312Y0093863D02*
X0100394Y0093863D01*
X0098795Y0095462D02*
X0108312Y0095462D01*
X0061750Y0095462D01*
X0063118Y0095462D02*
X0087482Y0095462D01*
X0085883Y0097060D02*
X0064717Y0097060D01*
X0061540Y0097060D02*
X0108312Y0097060D01*
X0097197Y0097060D01*
X0092401Y0101856D02*
X0103368Y0101856D01*
X0006600Y0101856D01*
X0058199Y0101856D01*
X0059442Y0103454D02*
X0059797Y0103454D01*
X0059442Y0103454D02*
X0101675Y0103454D01*
X0090803Y0103454D01*
X0090800Y0105053D02*
X0100865Y0105053D01*
X0061467Y0105053D01*
X0062350Y0106651D02*
X0082800Y0106651D01*
X0082800Y0108250D02*
X0062750Y0108250D01*
X0100457Y0108250D01*
X0090800Y0108250D01*
X0090800Y0109848D02*
X0100990Y0109848D01*
X0062750Y0109848D01*
X0082800Y0109848D01*
X0082800Y0111447D02*
X0062144Y0111447D01*
X0101976Y0111447D01*
X0090800Y0111447D01*
X0090800Y0113045D02*
X0104094Y0113045D01*
X0061200Y0113045D01*
X0082800Y0113045D01*
X0082800Y0114644D02*
X0061200Y0114644D01*
X0141091Y0114644D01*
X0090800Y0114644D01*
X0090800Y0116242D02*
X0140700Y0116242D01*
X0061200Y0116242D01*
X0082800Y0116242D01*
X0082800Y0117841D02*
X0061200Y0117841D01*
X0140102Y0117841D01*
X0090800Y0117841D01*
X0090800Y0119439D02*
X0138504Y0119439D01*
X0061200Y0119439D01*
X0082800Y0119439D01*
X0082800Y0121038D02*
X0061200Y0121038D01*
X0103091Y0121038D01*
X0090800Y0121038D01*
X0090800Y0122636D02*
X0101493Y0122636D01*
X0061200Y0122636D01*
X0082800Y0122636D01*
X0082800Y0124235D02*
X0061200Y0124235D01*
X0100789Y0124235D01*
X0090800Y0124235D01*
X0090800Y0125833D02*
X0100457Y0125833D01*
X0061200Y0125833D01*
X0082800Y0125833D01*
X0082800Y0127432D02*
X0061200Y0127432D01*
X0100457Y0127432D01*
X0090800Y0127432D01*
X0090800Y0129030D02*
X0101065Y0129030D01*
X0061200Y0129030D01*
X0082800Y0129030D01*
X0082800Y0130629D02*
X0061200Y0130629D01*
X0102158Y0130629D01*
X0090800Y0130629D01*
X0092372Y0132227D02*
X0104534Y0132227D01*
X0061200Y0132227D01*
X0082800Y0132227D01*
X0083098Y0133826D02*
X0061200Y0133826D01*
X0108312Y0133826D01*
X0093971Y0133826D01*
X0095569Y0135424D02*
X0108312Y0135424D01*
X0061200Y0135424D01*
X0084256Y0135424D01*
X0085854Y0137023D02*
X0061200Y0137023D01*
X0108312Y0137023D01*
X0097168Y0137023D01*
X0098766Y0138621D02*
X0108312Y0138621D01*
X0061200Y0138621D01*
X0087453Y0138621D01*
X0089051Y0140220D02*
X0061200Y0140220D01*
X0108312Y0140220D01*
X0100365Y0140220D01*
X0100513Y0141457D02*
X0097902Y0141457D01*
X0097444Y0141579D01*
X0097033Y0141816D01*
X0096698Y0142151D01*
X0096461Y0142562D01*
X0096339Y0143020D01*
X0096339Y0146025D01*
X0100513Y0146025D01*
X0100513Y0147575D01*
X0096339Y0147575D01*
X0096339Y0150580D01*
X0096461Y0151038D01*
X0096698Y0151449D01*
X0097033Y0151784D01*
X0097444Y0152021D01*
X0097902Y0152143D01*
X0100513Y0152143D01*
X0100513Y0147575D01*
X0102063Y0147575D01*
X0102063Y0152143D01*
X0104675Y0152143D01*
X0105133Y0152021D01*
X0105543Y0151784D01*
X0105878Y0151449D01*
X0106115Y0151038D01*
X0106238Y0150580D01*
X0106238Y0147575D01*
X0102063Y0147575D01*
X0102063Y0146025D01*
X0102063Y0141457D01*
X0104675Y0141457D01*
X0105133Y0141579D01*
X0105543Y0141816D01*
X0105878Y0142151D01*
X0106115Y0142562D01*
X0106238Y0143020D01*
X0106238Y0146025D01*
X0102063Y0146025D01*
X0100513Y0146025D01*
X0100513Y0141457D01*
X0100513Y0141818D02*
X0102063Y0141818D01*
X0102063Y0143417D02*
X0100513Y0143417D01*
X0100513Y0145015D02*
X0102063Y0145015D01*
X0102063Y0146614D02*
X0106362Y0146614D01*
X0106362Y0148212D02*
X0106238Y0148212D01*
X0106238Y0149811D02*
X0106362Y0149811D01*
X0106573Y0151409D02*
X0105901Y0151409D01*
X0108279Y0153008D02*
X0061911Y0153008D01*
X0097255Y0153008D01*
X0096676Y0151409D02*
X0062574Y0151409D01*
X0095549Y0151409D01*
X0095339Y0149811D02*
X0062750Y0149811D01*
X0096339Y0149811D01*
X0096339Y0148212D02*
X0062583Y0148212D01*
X0095339Y0148212D01*
X0095339Y0146614D02*
X0061920Y0146614D01*
X0100513Y0146614D01*
X0100513Y0148212D02*
X0102063Y0148212D01*
X0102063Y0149811D02*
X0100513Y0149811D01*
X0100513Y0151409D02*
X0102063Y0151409D01*
X0100603Y0154606D02*
X0060408Y0154606D01*
X0121683Y0154606D01*
X0111917Y0154606D01*
X0112974Y0157803D02*
X0113933Y0157803D01*
X0113933Y0159402D02*
X0112974Y0159402D01*
X0112974Y0161001D02*
X0113933Y0161001D01*
X0113933Y0162599D02*
X0112974Y0162599D01*
X0112974Y0164198D02*
X0113933Y0164198D01*
X0113933Y0165796D02*
X0112974Y0165796D01*
X0115300Y0167395D02*
X0108051Y0167395D01*
X0109956Y0167395D01*
X0109418Y0165796D02*
X0106453Y0165796D01*
X0108296Y0165796D01*
X0108094Y0164198D02*
X0104854Y0164198D01*
X0109094Y0164198D01*
X0109094Y0162599D02*
X0103256Y0162599D01*
X0108094Y0162599D01*
X0109094Y0161001D02*
X0101657Y0161001D01*
X0106997Y0161001D01*
X0105399Y0159402D02*
X0060817Y0159402D01*
X0109094Y0159402D01*
X0109419Y0157803D02*
X0047019Y0157803D01*
X0103800Y0157803D01*
X0102202Y0156205D02*
X0048618Y0156205D01*
X0116650Y0156205D01*
X0116345Y0153008D02*
X0123282Y0153008D01*
X0116345Y0153008D01*
X0118051Y0151409D02*
X0124880Y0151409D01*
X0118051Y0151409D01*
X0118261Y0149811D02*
X0126479Y0149811D01*
X0118261Y0149811D01*
X0118261Y0148212D02*
X0128077Y0148212D01*
X0118261Y0148212D01*
X0118261Y0146614D02*
X0129676Y0146614D01*
X0118261Y0146614D01*
X0118261Y0145015D02*
X0131274Y0145015D01*
X0118261Y0145015D01*
X0118261Y0143417D02*
X0132873Y0143417D01*
X0118261Y0143417D01*
X0117896Y0141818D02*
X0141222Y0141818D01*
X0117896Y0141818D01*
X0116312Y0140220D02*
X0141614Y0140220D01*
X0116312Y0140220D01*
X0116312Y0138621D02*
X0140952Y0138621D01*
X0116312Y0138621D01*
X0116312Y0137023D02*
X0140700Y0137023D01*
X0116312Y0137023D01*
X0116312Y0135424D02*
X0140767Y0135424D01*
X0116312Y0135424D01*
X0116312Y0133826D02*
X0141429Y0133826D01*
X0116312Y0133826D01*
X0116312Y0132227D02*
X0142746Y0132227D01*
X0116312Y0132227D01*
X0116151Y0130629D02*
X0142002Y0130629D01*
X0116151Y0130629D01*
X0110509Y0121038D02*
X0136905Y0121038D01*
X0110509Y0121038D01*
X0109506Y0113045D02*
X0141928Y0113045D01*
X0109506Y0113045D01*
X0111624Y0111447D02*
X0142820Y0111447D01*
X0111624Y0111447D01*
X0100457Y0106651D02*
X0090800Y0106651D01*
X0100457Y0106651D02*
X0062350Y0106651D01*
X0054158Y0103454D02*
X0006600Y0103454D01*
X0054158Y0103454D01*
X0052133Y0105053D02*
X0006600Y0105053D01*
X0052133Y0105053D01*
X0051250Y0106651D02*
X0006600Y0106651D01*
X0051250Y0106651D01*
X0050850Y0108250D02*
X0006600Y0108250D01*
X0050850Y0108250D01*
X0050850Y0109848D02*
X0006600Y0109848D01*
X0050850Y0109848D01*
X0051456Y0111447D02*
X0006600Y0111447D01*
X0051456Y0111447D01*
X0052400Y0113045D02*
X0006600Y0113045D01*
X0052400Y0113045D01*
X0052400Y0114644D02*
X0006600Y0114644D01*
X0052400Y0114644D01*
X0052400Y0116242D02*
X0006600Y0116242D01*
X0052400Y0116242D01*
X0052400Y0117841D02*
X0006600Y0117841D01*
X0052400Y0117841D01*
X0052400Y0119439D02*
X0006600Y0119439D01*
X0052400Y0119439D01*
X0052400Y0121038D02*
X0006600Y0121038D01*
X0052400Y0121038D01*
X0052400Y0122636D02*
X0006600Y0122636D01*
X0052400Y0122636D01*
X0052400Y0124235D02*
X0006600Y0124235D01*
X0052400Y0124235D01*
X0052400Y0125833D02*
X0006600Y0125833D01*
X0052400Y0125833D01*
X0052400Y0127432D02*
X0006600Y0127432D01*
X0052400Y0127432D01*
X0052400Y0129030D02*
X0006600Y0129030D01*
X0052400Y0129030D01*
X0052400Y0130629D02*
X0006600Y0130629D01*
X0052400Y0130629D01*
X0052400Y0132227D02*
X0006600Y0132227D01*
X0052400Y0132227D01*
X0052400Y0133826D02*
X0006600Y0133826D01*
X0052400Y0133826D01*
X0052400Y0135424D02*
X0006600Y0135424D01*
X0052400Y0135424D01*
X0052400Y0137023D02*
X0006600Y0137023D01*
X0052400Y0137023D01*
X0052400Y0138621D02*
X0006600Y0138621D01*
X0052400Y0138621D01*
X0052400Y0140220D02*
X0006600Y0140220D01*
X0052400Y0140220D01*
X0052400Y0141818D02*
X0006600Y0141818D01*
X0052400Y0141818D01*
X0052400Y0143417D02*
X0006600Y0143417D01*
X0052400Y0143417D01*
X0052400Y0145015D02*
X0006600Y0145015D01*
X0052400Y0145015D01*
X0045764Y0146614D02*
X0006600Y0146614D01*
X0045764Y0146614D01*
X0044165Y0148212D02*
X0006600Y0148212D01*
X0044165Y0148212D01*
X0042567Y0149811D02*
X0006600Y0149811D01*
X0042567Y0149811D01*
X0040968Y0151409D02*
X0006600Y0151409D01*
X0040968Y0151409D01*
X0039369Y0153008D02*
X0006600Y0153008D01*
X0039369Y0153008D01*
X0037946Y0154606D02*
X0006600Y0154606D01*
X0037946Y0154606D01*
X0037400Y0156205D02*
X0006600Y0156205D01*
X0037400Y0156205D01*
X0037400Y0157803D02*
X0006600Y0157803D01*
X0037400Y0157803D01*
X0037400Y0159402D02*
X0006600Y0159402D01*
X0037400Y0159402D01*
X0037400Y0161001D02*
X0006600Y0161001D01*
X0037400Y0161001D01*
X0037400Y0162599D02*
X0006600Y0162599D01*
X0037400Y0162599D01*
X0037400Y0164198D02*
X0006600Y0164198D01*
X0037400Y0164198D01*
X0037400Y0165796D02*
X0006600Y0165796D01*
X0037400Y0165796D01*
X0037400Y0167395D02*
X0006600Y0167395D01*
X0037400Y0167395D01*
X0037946Y0168993D02*
X0006600Y0168993D01*
X0037946Y0168993D01*
X0039369Y0170592D02*
X0006600Y0170592D01*
X0039369Y0170592D01*
X0040968Y0172190D02*
X0006600Y0172190D01*
X0040968Y0172190D01*
X0042566Y0173789D02*
X0006600Y0173789D01*
X0042566Y0173789D01*
X0044165Y0175387D02*
X0006600Y0175387D01*
X0044165Y0175387D01*
X0045763Y0176986D02*
X0006600Y0176986D01*
X0045763Y0176986D01*
X0047362Y0178584D02*
X0006600Y0178584D01*
X0047362Y0178584D01*
X0048960Y0180183D02*
X0016214Y0180183D01*
X0048960Y0180183D01*
X0053413Y0172190D02*
X0101533Y0172190D01*
X0053413Y0172190D01*
X0051814Y0170592D02*
X0099935Y0170592D01*
X0051814Y0170592D01*
X0050216Y0168993D02*
X0053579Y0168993D01*
X0050216Y0168993D01*
X0048617Y0167395D02*
X0051980Y0167395D01*
X0048617Y0167395D01*
X0047019Y0165796D02*
X0050850Y0165796D01*
X0047019Y0165796D01*
X0046200Y0164198D02*
X0050850Y0164198D01*
X0046200Y0164198D01*
X0046200Y0162599D02*
X0050850Y0162599D01*
X0046200Y0162599D01*
X0046200Y0161001D02*
X0051185Y0161001D01*
X0046200Y0161001D01*
X0046200Y0159402D02*
X0052783Y0159402D01*
X0046200Y0159402D01*
X0050216Y0154606D02*
X0053192Y0154606D01*
X0050216Y0154606D01*
X0061200Y0145015D02*
X0093847Y0145015D01*
X0092248Y0143417D02*
X0061200Y0143417D01*
X0096339Y0143417D01*
X0096339Y0145015D02*
X0061200Y0145015D01*
X0061200Y0141818D02*
X0090650Y0141818D01*
X0097031Y0141818D02*
X0061200Y0141818D01*
X0060021Y0168993D02*
X0098336Y0168993D01*
X0060021Y0168993D01*
X0019600Y0183569D02*
X0019600Y0190031D01*
X0015031Y0194600D01*
X0008569Y0194600D01*
X0006600Y0192631D01*
X0006600Y0196961D01*
X0295701Y0196961D01*
X0295701Y0006600D01*
X0006600Y0006600D01*
X0006600Y0010969D01*
X0008569Y0009000D01*
X0015031Y0009000D01*
X0019600Y0013569D01*
X0019600Y0020031D01*
X0015031Y0024600D01*
X0008569Y0024600D01*
X0006600Y0022631D01*
X0006600Y0180969D01*
X0008569Y0179000D01*
X0015031Y0179000D01*
X0019600Y0183569D01*
X0019411Y0183380D02*
X0212157Y0183380D01*
X0019411Y0183380D01*
X0019600Y0184978D02*
X0213756Y0184978D01*
X0019600Y0184978D01*
X0019600Y0186577D02*
X0215354Y0186577D01*
X0019600Y0186577D01*
X0019600Y0188175D02*
X0216953Y0188175D01*
X0019600Y0188175D01*
X0019600Y0189774D02*
X0218551Y0189774D01*
X0019600Y0189774D01*
X0018259Y0191372D02*
X0280341Y0191372D01*
X0018259Y0191372D01*
X0016660Y0192971D02*
X0281940Y0192971D01*
X0016660Y0192971D01*
X0015062Y0194569D02*
X0283538Y0194569D01*
X0015062Y0194569D01*
X0008538Y0194569D02*
X0006600Y0194569D01*
X0008538Y0194569D01*
X0006940Y0192971D02*
X0006600Y0192971D01*
X0006940Y0192971D01*
X0006600Y0196168D02*
X0295701Y0196168D01*
X0006600Y0196168D01*
X0017812Y0181781D02*
X0210559Y0181781D01*
X0017812Y0181781D01*
X0007386Y0180183D02*
X0006600Y0180183D01*
X0007386Y0180183D01*
X0106238Y0145015D02*
X0106362Y0145015D01*
X0106362Y0143417D02*
X0106238Y0143417D01*
X0106727Y0141818D02*
X0105545Y0141818D01*
X0129800Y0157803D02*
X0198094Y0157803D01*
X0198094Y0157098D02*
X0181797Y0140800D01*
X0181427Y0140800D01*
X0180427Y0141800D01*
X0181971Y0143345D01*
X0182900Y0145587D01*
X0182900Y0148013D01*
X0181971Y0150255D01*
X0180255Y0151971D01*
X0178013Y0152900D01*
X0175587Y0152900D01*
X0173345Y0151971D01*
X0172173Y0150800D01*
X0152841Y0150800D01*
X0152474Y0151686D01*
X0151686Y0152474D01*
X0150657Y0152900D01*
X0142943Y0152900D01*
X0141914Y0152474D01*
X0141126Y0151686D01*
X0140759Y0150800D01*
X0136803Y0150800D01*
X0125550Y0162054D01*
X0125800Y0162658D01*
X0125800Y0164249D01*
X0125505Y0164960D01*
X0125505Y0165310D01*
X0125079Y0166339D01*
X0124292Y0167126D01*
X0123300Y0167537D01*
X0123300Y0170096D01*
X0122691Y0171566D01*
X0121857Y0172400D01*
X0212675Y0172400D01*
X0214292Y0173070D01*
X0223623Y0182400D01*
X0229977Y0182400D01*
X0230177Y0182200D01*
X0229563Y0182200D01*
X0226400Y0179037D01*
X0226400Y0177057D01*
X0211896Y0162553D01*
X0207030Y0162553D01*
X0206800Y0162457D01*
X0206570Y0162553D01*
X0200338Y0162553D01*
X0199308Y0162126D01*
X0198521Y0161339D01*
X0198094Y0160310D01*
X0198094Y0157098D01*
X0197202Y0156205D02*
X0131398Y0156205D01*
X0132997Y0154606D02*
X0195603Y0154606D01*
X0194005Y0153008D02*
X0134595Y0153008D01*
X0136194Y0151409D02*
X0141012Y0151409D01*
X0152588Y0151409D02*
X0172783Y0151409D01*
X0180817Y0151409D02*
X0192406Y0151409D01*
X0190808Y0149811D02*
X0182155Y0149811D01*
X0182818Y0148212D02*
X0189209Y0148212D01*
X0187611Y0146614D02*
X0182900Y0146614D01*
X0182663Y0145015D02*
X0186012Y0145015D01*
X0184414Y0143417D02*
X0182001Y0143417D01*
X0182815Y0141818D02*
X0180445Y0141818D01*
X0173155Y0141818D02*
X0152378Y0141818D01*
X0173155Y0141818D01*
X0171614Y0140220D02*
X0151986Y0140220D01*
X0171614Y0140220D01*
X0170952Y0138621D02*
X0152648Y0138621D01*
X0170952Y0138621D01*
X0170700Y0137023D02*
X0152900Y0137023D01*
X0170700Y0137023D01*
X0170767Y0135424D02*
X0152833Y0135424D01*
X0170767Y0135424D01*
X0171429Y0133826D02*
X0152171Y0133826D01*
X0171429Y0133826D01*
X0172746Y0132227D02*
X0150854Y0132227D01*
X0172746Y0132227D01*
X0172002Y0130629D02*
X0151598Y0130629D01*
X0172002Y0130629D01*
X0171121Y0129030D02*
X0152479Y0129030D01*
X0171121Y0129030D01*
X0170700Y0127432D02*
X0152900Y0127432D01*
X0170700Y0127432D01*
X0170700Y0125833D02*
X0152900Y0125833D01*
X0170700Y0125833D01*
X0171260Y0124235D02*
X0152340Y0124235D01*
X0171260Y0124235D01*
X0172337Y0122636D02*
X0151263Y0122636D01*
X0172337Y0122636D01*
X0172411Y0121038D02*
X0151189Y0121038D01*
X0172411Y0121038D01*
X0171291Y0119439D02*
X0152309Y0119439D01*
X0171291Y0119439D01*
X0170700Y0117841D02*
X0152900Y0117841D01*
X0170700Y0117841D01*
X0170700Y0116242D02*
X0152900Y0116242D01*
X0170700Y0116242D01*
X0171091Y0114644D02*
X0152509Y0114644D01*
X0171091Y0114644D01*
X0171928Y0113045D02*
X0151672Y0113045D01*
X0171928Y0113045D01*
X0172820Y0111447D02*
X0150780Y0111447D01*
X0172820Y0111447D01*
X0171460Y0109848D02*
X0152140Y0109848D01*
X0171460Y0109848D01*
X0170798Y0108250D02*
X0152802Y0108250D01*
X0170798Y0108250D01*
X0170700Y0106651D02*
X0152900Y0106651D01*
X0170700Y0106651D01*
X0170921Y0105053D02*
X0152679Y0105053D01*
X0170921Y0105053D01*
X0171583Y0103454D02*
X0152017Y0103454D01*
X0171583Y0103454D01*
X0173118Y0101856D02*
X0150482Y0101856D01*
X0173118Y0101856D01*
X0171630Y0100257D02*
X0151970Y0100257D01*
X0171630Y0100257D01*
X0170967Y0098659D02*
X0152633Y0098659D01*
X0170967Y0098659D01*
X0170700Y0097060D02*
X0152900Y0097060D01*
X0170700Y0097060D01*
X0170752Y0095462D02*
X0152848Y0095462D01*
X0170752Y0095462D01*
X0171414Y0093863D02*
X0152186Y0093863D01*
X0171414Y0093863D01*
X0172709Y0092265D02*
X0150891Y0092265D01*
X0172709Y0092265D01*
X0172039Y0090666D02*
X0151561Y0090666D01*
X0172039Y0090666D01*
X0171137Y0089068D02*
X0152463Y0089068D01*
X0171137Y0089068D01*
X0170700Y0087469D02*
X0152900Y0087469D01*
X0170700Y0087469D01*
X0170700Y0085870D02*
X0152900Y0085870D01*
X0170700Y0085870D01*
X0171245Y0084272D02*
X0152355Y0084272D01*
X0171245Y0084272D01*
X0172300Y0082673D02*
X0151300Y0082673D01*
X0172300Y0082673D01*
X0172448Y0081075D02*
X0151152Y0081075D01*
X0172448Y0081075D01*
X0171306Y0079476D02*
X0152294Y0079476D01*
X0171306Y0079476D01*
X0170700Y0077878D02*
X0152900Y0077878D01*
X0170700Y0077878D01*
X0170700Y0076279D02*
X0152900Y0076279D01*
X0170700Y0076279D01*
X0171075Y0074681D02*
X0152525Y0074681D01*
X0171075Y0074681D01*
X0171891Y0073082D02*
X0151709Y0073082D01*
X0171891Y0073082D01*
X0172857Y0071484D02*
X0150743Y0071484D01*
X0172857Y0071484D01*
X0171475Y0069885D02*
X0152125Y0069885D01*
X0171475Y0069885D01*
X0170813Y0068287D02*
X0152787Y0068287D01*
X0170813Y0068287D01*
X0170700Y0066688D02*
X0152900Y0066688D01*
X0170700Y0066688D01*
X0170906Y0065090D02*
X0152694Y0065090D01*
X0170906Y0065090D01*
X0171568Y0063491D02*
X0152032Y0063491D01*
X0171568Y0063491D01*
X0173080Y0061893D02*
X0150520Y0061893D01*
X0173080Y0061893D01*
X0171668Y0060294D02*
X0151932Y0060294D01*
X0150518Y0060294D02*
X0171668Y0060294D01*
X0170983Y0058696D02*
X0152617Y0058696D01*
X0151546Y0058696D02*
X0170983Y0058696D01*
X0170700Y0057097D02*
X0152900Y0057097D01*
X0152864Y0055499D02*
X0170736Y0055499D01*
X0151740Y0055499D01*
X0152201Y0053900D02*
X0171399Y0053900D01*
X0150997Y0053900D01*
X0150928Y0052302D02*
X0172672Y0052302D01*
X0149205Y0052302D01*
X0147100Y0052302D02*
X0146500Y0052302D01*
X0146500Y0053900D02*
X0147100Y0053900D01*
X0147100Y0055499D02*
X0146500Y0055499D01*
X0147100Y0057097D02*
X0170700Y0057097D01*
X0180520Y0061893D02*
X0186050Y0061893D01*
X0180520Y0061893D01*
X0181932Y0060294D02*
X0187649Y0060294D01*
X0181932Y0060294D01*
X0182617Y0058696D02*
X0189247Y0058696D01*
X0182617Y0058696D01*
X0182900Y0057097D02*
X0190846Y0057097D01*
X0182900Y0057097D01*
X0182864Y0055499D02*
X0192444Y0055499D01*
X0182864Y0055499D01*
X0182201Y0053900D02*
X0194043Y0053900D01*
X0182201Y0053900D01*
X0180928Y0052302D02*
X0195641Y0052302D01*
X0180928Y0052302D01*
X0178021Y0050703D02*
X0197240Y0050703D01*
X0178021Y0050703D01*
X0175579Y0050703D02*
X0150800Y0050703D01*
X0150800Y0049105D02*
X0198094Y0049105D01*
X0141500Y0049105D01*
X0142800Y0049105D01*
X0142800Y0050703D02*
X0141500Y0050703D01*
X0175579Y0050703D01*
X0176179Y0037603D02*
X0171665Y0037603D01*
X0170739Y0037220D01*
X0169814Y0037603D01*
X0164298Y0037603D01*
X0162902Y0037025D01*
X0161833Y0035956D01*
X0161254Y0034559D01*
X0161254Y0033048D01*
X0161770Y0031802D01*
X0161254Y0030556D01*
X0161254Y0029044D01*
X0161833Y0027647D01*
X0161837Y0027643D01*
X0161152Y0026959D01*
X0160574Y0025562D01*
X0160574Y0023049D01*
X0160675Y0022804D01*
X0160574Y0022559D01*
X0160574Y0020375D01*
X0160151Y0019953D01*
X0159573Y0018556D01*
X0159573Y0017044D01*
X0160151Y0015647D01*
X0161220Y0014579D01*
X0162617Y0014000D01*
X0166130Y0014000D01*
X0166887Y0014314D01*
X0167024Y0014222D01*
X0168506Y0013926D01*
X0169989Y0014219D01*
X0170081Y0014280D01*
X0170757Y0014000D01*
X0172269Y0014000D01*
X0173666Y0014579D01*
X0173695Y0014608D01*
X0173724Y0014579D01*
X0173724Y0014579D01*
X0173724Y0014579D01*
X0173980Y0014472D01*
X0175121Y0014000D01*
X0179635Y0014000D01*
X0180561Y0014383D01*
X0181486Y0014000D01*
X0182998Y0014000D01*
X0184244Y0014516D01*
X0185490Y0014000D01*
X0187002Y0014000D01*
X0187700Y0014289D01*
X0188399Y0014000D01*
X0191912Y0014000D01*
X0192838Y0014383D01*
X0193764Y0014000D01*
X0198278Y0014000D01*
X0199477Y0014497D01*
X0200676Y0014000D01*
X0204190Y0014000D01*
X0205115Y0014383D01*
X0206041Y0014000D01*
X0207552Y0014000D01*
X0208798Y0014516D01*
X0210044Y0014000D01*
X0211556Y0014000D01*
X0212953Y0014579D01*
X0214021Y0015647D01*
X0214600Y0017044D01*
X0214600Y0024561D01*
X0214021Y0025958D01*
X0213177Y0026803D01*
X0214021Y0027647D01*
X0214600Y0029044D01*
X0214600Y0036561D01*
X0214021Y0037958D01*
X0212953Y0039027D01*
X0211556Y0039605D01*
X0210044Y0039605D01*
X0208798Y0039089D01*
X0207552Y0039605D01*
X0206041Y0039605D01*
X0204644Y0039027D01*
X0203575Y0037958D01*
X0203393Y0037519D01*
X0203189Y0037603D01*
X0199675Y0037603D01*
X0198279Y0037025D01*
X0198249Y0036996D01*
X0198220Y0037025D01*
X0197219Y0038026D01*
X0195822Y0038604D01*
X0194311Y0038604D01*
X0192914Y0038026D01*
X0192029Y0037141D01*
X0191718Y0037269D01*
X0190912Y0037603D01*
X0187398Y0037603D01*
X0186001Y0037025D01*
X0185972Y0036996D01*
X0185943Y0037025D01*
X0184546Y0037603D01*
X0183034Y0037603D01*
X0181789Y0037087D01*
X0180543Y0037603D01*
X0179031Y0037603D01*
X0177634Y0037025D01*
X0177605Y0036996D01*
X0177576Y0037025D01*
X0176986Y0037269D01*
X0176179Y0037603D01*
X0183545Y0026000D02*
X0184942Y0026579D01*
X0185472Y0027108D01*
X0186001Y0026579D01*
X0186663Y0026304D01*
X0186373Y0025603D01*
X0182487Y0025603D01*
X0181091Y0025025D01*
X0180561Y0024495D01*
X0180031Y0025025D01*
X0179441Y0025269D01*
X0178634Y0025603D01*
X0174881Y0025603D01*
X0174735Y0025958D01*
X0174692Y0026000D01*
X0177180Y0026000D01*
X0178105Y0026383D01*
X0179031Y0026000D01*
X0183545Y0026000D01*
X0185089Y0026726D02*
X0185854Y0026726D01*
X0181337Y0025127D02*
X0179784Y0025127D01*
X0168334Y0026000D02*
X0167992Y0026000D01*
X0168151Y0025617D01*
X0168292Y0025958D01*
X0168334Y0026000D01*
X0160263Y0015536D02*
X0137665Y0015536D01*
X0133735Y0015536D02*
X0107665Y0015536D01*
X0106854Y0015200D02*
X0108985Y0016083D01*
X0110617Y0017715D01*
X0111500Y0019846D01*
X0111500Y0028154D01*
X0110617Y0030285D01*
X0108985Y0031917D01*
X0106854Y0032800D01*
X0104546Y0032800D01*
X0102415Y0031917D01*
X0100783Y0030285D01*
X0099900Y0028154D01*
X0099900Y0019846D01*
X0100783Y0017715D01*
X0102415Y0016083D01*
X0104546Y0015200D01*
X0106854Y0015200D01*
X0103735Y0015536D02*
X0077665Y0015536D01*
X0076854Y0015200D02*
X0078985Y0016083D01*
X0080617Y0017715D01*
X0081500Y0019846D01*
X0081500Y0028154D01*
X0080617Y0030285D01*
X0078985Y0031917D01*
X0076854Y0032800D01*
X0074546Y0032800D01*
X0072415Y0031917D01*
X0070783Y0030285D01*
X0069900Y0028154D01*
X0069900Y0019846D01*
X0070783Y0017715D01*
X0072415Y0016083D01*
X0074546Y0015200D01*
X0076854Y0015200D01*
X0073735Y0015536D02*
X0047665Y0015536D01*
X0046854Y0015200D02*
X0048985Y0016083D01*
X0050617Y0017715D01*
X0051500Y0019846D01*
X0051500Y0028154D01*
X0050617Y0030285D01*
X0048985Y0031917D01*
X0046854Y0032800D01*
X0044546Y0032800D01*
X0042415Y0031917D01*
X0040783Y0030285D01*
X0039900Y0028154D01*
X0039900Y0019846D01*
X0040783Y0017715D01*
X0042415Y0016083D01*
X0044546Y0015200D01*
X0046854Y0015200D01*
X0043735Y0015536D02*
X0019600Y0015536D01*
X0025935Y0015536D01*
X0026057Y0016552D02*
X0026776Y0016318D01*
X0027522Y0016200D01*
X0027700Y0016200D01*
X0027700Y0023800D01*
X0023100Y0023800D01*
X0023100Y0020622D01*
X0023218Y0019876D01*
X0023452Y0019157D01*
X0023795Y0018484D01*
X0024239Y0017873D01*
X0024773Y0017339D01*
X0025384Y0016895D01*
X0026057Y0016552D01*
X0025054Y0017134D02*
X0019600Y0017134D01*
X0023563Y0017134D01*
X0023668Y0018733D02*
X0019600Y0018733D01*
X0022561Y0018733D01*
X0022100Y0020332D02*
X0019299Y0020332D01*
X0023146Y0020332D01*
X0023100Y0021930D02*
X0017701Y0021930D01*
X0022100Y0021930D01*
X0022100Y0023529D02*
X0016102Y0023529D01*
X0023100Y0023529D01*
X0023100Y0024200D02*
X0027700Y0024200D01*
X0027700Y0031800D01*
X0027522Y0031800D01*
X0026776Y0031682D01*
X0026057Y0031448D01*
X0025384Y0031105D01*
X0024773Y0030661D01*
X0024239Y0030127D01*
X0023795Y0029516D01*
X0023452Y0028843D01*
X0023218Y0028124D01*
X0023100Y0027378D01*
X0023100Y0024200D01*
X0023100Y0025127D02*
X0006600Y0025127D01*
X0022100Y0025127D01*
X0022100Y0026726D02*
X0006600Y0026726D01*
X0023100Y0026726D01*
X0023283Y0028324D02*
X0006600Y0028324D01*
X0022171Y0028324D01*
X0022833Y0029923D02*
X0006600Y0029923D01*
X0024090Y0029923D01*
X0023900Y0031521D02*
X0006600Y0031521D01*
X0026281Y0031521D01*
X0027700Y0031521D02*
X0028100Y0031521D01*
X0028100Y0031800D02*
X0028100Y0024200D01*
X0027700Y0024200D01*
X0027700Y0023800D01*
X0028100Y0023800D01*
X0028100Y0024200D01*
X0032700Y0024200D01*
X0032700Y0027378D01*
X0032582Y0028124D01*
X0032348Y0028843D01*
X0032005Y0029516D01*
X0031561Y0030127D01*
X0031027Y0030661D01*
X0030416Y0031105D01*
X0029743Y0031448D01*
X0029024Y0031682D01*
X0028278Y0031800D01*
X0028100Y0031800D01*
X0029519Y0031521D02*
X0042019Y0031521D01*
X0031900Y0031521D01*
X0031900Y0033120D02*
X0053900Y0033120D01*
X0053900Y0034718D02*
X0031900Y0034718D01*
X0031900Y0036317D02*
X0053900Y0036317D01*
X0053900Y0037915D02*
X0031900Y0037915D01*
X0031900Y0039514D02*
X0053900Y0039514D01*
X0053900Y0041112D02*
X0047607Y0041112D01*
X0073793Y0041112D01*
X0061900Y0041112D01*
X0061900Y0039514D02*
X0083900Y0039514D01*
X0083900Y0041112D02*
X0077607Y0041112D01*
X0103793Y0041112D01*
X0091900Y0041112D01*
X0091900Y0039514D02*
X0113900Y0039514D01*
X0113900Y0041112D02*
X0107607Y0041112D01*
X0133793Y0041112D01*
X0121900Y0041112D01*
X0121900Y0039514D02*
X0142800Y0039514D01*
X0142800Y0041112D02*
X0137607Y0041112D01*
X0221831Y0041112D01*
X0150800Y0041112D01*
X0150800Y0042711D02*
X0220232Y0042711D01*
X0140013Y0042711D01*
X0142800Y0042711D01*
X0142800Y0044309D02*
X0141029Y0044309D01*
X0218634Y0044309D01*
X0150800Y0044309D01*
X0150800Y0045908D02*
X0217035Y0045908D01*
X0141500Y0045908D01*
X0142800Y0045908D01*
X0142800Y0047506D02*
X0141500Y0047506D01*
X0198419Y0047506D01*
X0150800Y0047506D01*
X0144395Y0052302D02*
X0141500Y0052302D01*
X0142672Y0052302D01*
X0142603Y0053900D02*
X0141439Y0053900D01*
X0141156Y0055499D02*
X0141860Y0055499D01*
X0131949Y0057097D02*
X0121605Y0057097D01*
X0121027Y0056261D02*
X0120416Y0056705D01*
X0119743Y0057048D01*
X0119024Y0057282D01*
X0118278Y0057400D01*
X0118100Y0057400D01*
X0118100Y0049800D01*
X0117700Y0049800D01*
X0117700Y0057400D01*
X0117522Y0057400D01*
X0116776Y0057282D01*
X0116057Y0057048D01*
X0115384Y0056705D01*
X0114773Y0056261D01*
X0114239Y0055727D01*
X0113795Y0055116D01*
X0113452Y0054443D01*
X0113218Y0053724D01*
X0113100Y0052978D01*
X0113100Y0049800D01*
X0117700Y0049800D01*
X0117700Y0049400D01*
X0113100Y0049400D01*
X0113100Y0046222D01*
X0113218Y0045476D01*
X0113452Y0044757D01*
X0113795Y0044084D01*
X0114239Y0043473D01*
X0114773Y0042939D01*
X0115384Y0042495D01*
X0116057Y0042152D01*
X0116776Y0041918D01*
X0117522Y0041800D01*
X0117700Y0041800D01*
X0117700Y0049400D01*
X0118100Y0049400D01*
X0118100Y0049800D01*
X0122700Y0049800D01*
X0122700Y0052978D01*
X0122582Y0053724D01*
X0122348Y0054443D01*
X0122005Y0055116D01*
X0121561Y0055727D01*
X0121027Y0056261D01*
X0121727Y0055499D02*
X0130623Y0055499D01*
X0122977Y0055499D01*
X0122525Y0053900D02*
X0129961Y0053900D01*
X0123639Y0053900D01*
X0123700Y0052302D02*
X0129900Y0052302D01*
X0122700Y0052302D01*
X0122700Y0050703D02*
X0129900Y0050703D01*
X0123700Y0050703D01*
X0123700Y0049105D02*
X0129900Y0049105D01*
X0122700Y0049105D01*
X0122700Y0049400D02*
X0118100Y0049400D01*
X0118100Y0041800D01*
X0118278Y0041800D01*
X0119024Y0041918D01*
X0119743Y0042152D01*
X0120416Y0042495D01*
X0121027Y0042939D01*
X0121561Y0043473D01*
X0122005Y0044084D01*
X0122348Y0044757D01*
X0122582Y0045476D01*
X0122700Y0046222D01*
X0122700Y0049400D01*
X0122700Y0047506D02*
X0129900Y0047506D01*
X0123700Y0047506D01*
X0123700Y0045908D02*
X0129900Y0045908D01*
X0122650Y0045908D01*
X0122120Y0044309D02*
X0130371Y0044309D01*
X0123229Y0044309D01*
X0122213Y0042711D02*
X0131387Y0042711D01*
X0120713Y0042711D01*
X0118100Y0042711D02*
X0117700Y0042711D01*
X0117700Y0044309D02*
X0118100Y0044309D01*
X0118100Y0045908D02*
X0117700Y0045908D01*
X0117700Y0047506D02*
X0118100Y0047506D01*
X0118100Y0049105D02*
X0117700Y0049105D01*
X0117700Y0050703D02*
X0118100Y0050703D01*
X0118100Y0052302D02*
X0117700Y0052302D01*
X0117700Y0053900D02*
X0118100Y0053900D01*
X0118100Y0055499D02*
X0117700Y0055499D01*
X0117700Y0057097D02*
X0118100Y0057097D01*
X0119592Y0057097D02*
X0131949Y0057097D01*
X0131031Y0066688D02*
X0097345Y0066688D01*
X0131031Y0066688D01*
X0132630Y0068287D02*
X0123771Y0068287D01*
X0132630Y0068287D01*
X0134229Y0069885D02*
X0125542Y0069885D01*
X0134229Y0069885D01*
X0135827Y0071484D02*
X0127141Y0071484D01*
X0135827Y0071484D01*
X0137426Y0073082D02*
X0128739Y0073082D01*
X0137426Y0073082D01*
X0139024Y0074681D02*
X0130338Y0074681D01*
X0139024Y0074681D01*
X0140623Y0076279D02*
X0131936Y0076279D01*
X0140623Y0076279D01*
X0140700Y0077878D02*
X0133535Y0077878D01*
X0140700Y0077878D01*
X0141306Y0079476D02*
X0135133Y0079476D01*
X0141306Y0079476D01*
X0142448Y0081075D02*
X0136732Y0081075D01*
X0142448Y0081075D01*
X0142300Y0082673D02*
X0138330Y0082673D01*
X0142300Y0082673D01*
X0142173Y0090800D02*
X0136457Y0090800D01*
X0138457Y0092800D01*
X0142173Y0092800D01*
X0143173Y0091800D01*
X0142173Y0090800D01*
X0142709Y0092265D02*
X0137921Y0092265D01*
X0131403Y0097060D02*
X0116312Y0097060D01*
X0116312Y0095462D02*
X0129805Y0095462D01*
X0128206Y0093863D02*
X0116312Y0093863D01*
X0116312Y0093022D02*
X0116312Y0102584D01*
X0116015Y0103300D01*
X0141673Y0103300D01*
X0143173Y0101800D01*
X0142173Y0100800D01*
X0136004Y0100800D01*
X0134534Y0100191D01*
X0133409Y0099066D01*
X0118261Y0083918D01*
X0118261Y0090900D01*
X0117835Y0091929D01*
X0117047Y0092717D01*
X0116312Y0093022D01*
X0117500Y0092265D02*
X0126608Y0092265D01*
X0125009Y0090666D02*
X0118261Y0090666D01*
X0118261Y0089068D02*
X0123411Y0089068D01*
X0121812Y0087469D02*
X0118261Y0087469D01*
X0118261Y0085870D02*
X0120214Y0085870D01*
X0118615Y0084272D02*
X0118261Y0084272D01*
X0108312Y0093863D02*
X0061750Y0093863D01*
X0062750Y0093863D02*
X0089080Y0093863D01*
X0090679Y0092265D02*
X0062679Y0092265D01*
X0073241Y0071484D02*
X0090827Y0071484D01*
X0073241Y0071484D01*
X0071642Y0069885D02*
X0089229Y0069885D01*
X0071642Y0069885D01*
X0070044Y0068287D02*
X0087630Y0068287D01*
X0070044Y0068287D01*
X0068445Y0066688D02*
X0086032Y0066688D01*
X0068445Y0066688D01*
X0066847Y0065090D02*
X0084433Y0065090D01*
X0066847Y0065090D01*
X0065248Y0063491D02*
X0082834Y0063491D01*
X0065248Y0063491D01*
X0063650Y0061893D02*
X0081236Y0061893D01*
X0063650Y0061893D01*
X0062051Y0060294D02*
X0079637Y0060294D01*
X0062051Y0060294D01*
X0060453Y0058696D02*
X0078039Y0058696D01*
X0060453Y0058696D01*
X0059592Y0057097D02*
X0071995Y0057097D01*
X0061605Y0057097D01*
X0061727Y0055499D02*
X0070623Y0055499D01*
X0062977Y0055499D01*
X0062525Y0053900D02*
X0069961Y0053900D01*
X0063639Y0053900D01*
X0063700Y0052302D02*
X0069900Y0052302D01*
X0062700Y0052302D01*
X0062700Y0050703D02*
X0069900Y0050703D01*
X0063700Y0050703D01*
X0063700Y0049105D02*
X0069900Y0049105D01*
X0062700Y0049105D01*
X0062700Y0047506D02*
X0069900Y0047506D01*
X0063700Y0047506D01*
X0063700Y0045908D02*
X0069900Y0045908D01*
X0062650Y0045908D01*
X0062120Y0044309D02*
X0070371Y0044309D01*
X0063229Y0044309D01*
X0062213Y0042711D02*
X0071387Y0042711D01*
X0060713Y0042711D01*
X0058100Y0042711D02*
X0057700Y0042711D01*
X0057700Y0044309D02*
X0058100Y0044309D01*
X0058100Y0045908D02*
X0057700Y0045908D01*
X0057700Y0047506D02*
X0058100Y0047506D01*
X0058100Y0049105D02*
X0057700Y0049105D01*
X0053100Y0049105D02*
X0051500Y0049105D01*
X0052100Y0049105D01*
X0052100Y0047506D02*
X0051500Y0047506D01*
X0053100Y0047506D01*
X0053150Y0045908D02*
X0051500Y0045908D01*
X0052100Y0045908D01*
X0052571Y0044309D02*
X0051029Y0044309D01*
X0053680Y0044309D01*
X0053587Y0042711D02*
X0050013Y0042711D01*
X0055087Y0042711D01*
X0061900Y0037915D02*
X0083900Y0037915D01*
X0083900Y0036317D02*
X0061900Y0036317D01*
X0061900Y0034718D02*
X0083900Y0034718D01*
X0083900Y0033120D02*
X0061900Y0033120D01*
X0061900Y0031521D02*
X0072019Y0031521D01*
X0059519Y0031521D01*
X0059743Y0031448D02*
X0059024Y0031682D01*
X0058278Y0031800D01*
X0058100Y0031800D01*
X0058100Y0024200D01*
X0057700Y0024200D01*
X0057700Y0031800D01*
X0057522Y0031800D01*
X0056776Y0031682D01*
X0056057Y0031448D01*
X0055384Y0031105D01*
X0054773Y0030661D01*
X0054239Y0030127D01*
X0053795Y0029516D01*
X0053452Y0028843D01*
X0053218Y0028124D01*
X0053100Y0027378D01*
X0053100Y0024200D01*
X0057700Y0024200D01*
X0057700Y0023800D01*
X0053100Y0023800D01*
X0053100Y0020622D01*
X0053218Y0019876D01*
X0053452Y0019157D01*
X0053795Y0018484D01*
X0054239Y0017873D01*
X0054773Y0017339D01*
X0055384Y0016895D01*
X0056057Y0016552D01*
X0056776Y0016318D01*
X0057522Y0016200D01*
X0057700Y0016200D01*
X0057700Y0023800D01*
X0058100Y0023800D01*
X0058100Y0024200D01*
X0062700Y0024200D01*
X0062700Y0027378D01*
X0062582Y0028124D01*
X0062348Y0028843D01*
X0062005Y0029516D01*
X0061561Y0030127D01*
X0061027Y0030661D01*
X0060416Y0031105D01*
X0059743Y0031448D01*
X0058100Y0031521D02*
X0057700Y0031521D01*
X0056281Y0031521D02*
X0049381Y0031521D01*
X0053900Y0031521D01*
X0054090Y0029923D02*
X0050767Y0029923D01*
X0052833Y0029923D01*
X0053283Y0028324D02*
X0051429Y0028324D01*
X0052171Y0028324D01*
X0052100Y0026726D02*
X0051500Y0026726D01*
X0053100Y0026726D01*
X0053100Y0025127D02*
X0051500Y0025127D01*
X0052100Y0025127D01*
X0052100Y0023529D02*
X0051500Y0023529D01*
X0053100Y0023529D01*
X0053100Y0021930D02*
X0051500Y0021930D01*
X0052100Y0021930D01*
X0052100Y0020332D02*
X0051500Y0020332D01*
X0053146Y0020332D01*
X0053668Y0018733D02*
X0051039Y0018733D01*
X0052561Y0018733D01*
X0053563Y0017134D02*
X0050037Y0017134D01*
X0055054Y0017134D01*
X0057700Y0017134D02*
X0058100Y0017134D01*
X0058100Y0016200D02*
X0058278Y0016200D01*
X0059024Y0016318D01*
X0059743Y0016552D01*
X0060416Y0016895D01*
X0061027Y0017339D01*
X0061561Y0017873D01*
X0062005Y0018484D01*
X0062348Y0019157D01*
X0062582Y0019876D01*
X0062700Y0020622D01*
X0062700Y0023800D01*
X0058100Y0023800D01*
X0058100Y0016200D01*
X0060746Y0017134D02*
X0071363Y0017134D01*
X0067122Y0017134D01*
X0065524Y0018733D02*
X0070361Y0018733D01*
X0062132Y0018733D01*
X0062654Y0020332D02*
X0069900Y0020332D01*
X0063925Y0020332D01*
X0063700Y0021930D02*
X0069900Y0021930D01*
X0062700Y0021930D01*
X0062700Y0023529D02*
X0069900Y0023529D01*
X0063700Y0023529D01*
X0063700Y0025127D02*
X0069900Y0025127D01*
X0062700Y0025127D01*
X0062700Y0026726D02*
X0069900Y0026726D01*
X0063700Y0026726D01*
X0063629Y0028324D02*
X0069971Y0028324D01*
X0062517Y0028324D01*
X0062967Y0029923D02*
X0070633Y0029923D01*
X0061710Y0029923D01*
X0058100Y0029923D02*
X0057700Y0029923D01*
X0057700Y0028324D02*
X0058100Y0028324D01*
X0058100Y0026726D02*
X0057700Y0026726D01*
X0057700Y0025127D02*
X0058100Y0025127D01*
X0058100Y0023529D02*
X0057700Y0023529D01*
X0057700Y0021930D02*
X0058100Y0021930D01*
X0058100Y0020332D02*
X0057700Y0020332D01*
X0057700Y0018733D02*
X0058100Y0018733D01*
X0041363Y0017134D02*
X0040422Y0017134D01*
X0041363Y0017134D02*
X0030746Y0017134D01*
X0031027Y0017339D02*
X0031561Y0017873D01*
X0032005Y0018484D01*
X0032348Y0019157D01*
X0032582Y0019876D01*
X0032700Y0020622D01*
X0032700Y0023800D01*
X0028100Y0023800D01*
X0028100Y0016200D01*
X0028278Y0016200D01*
X0029024Y0016318D01*
X0029743Y0016552D01*
X0030416Y0016895D01*
X0031027Y0017339D01*
X0032132Y0018733D02*
X0040361Y0018733D01*
X0038824Y0018733D01*
X0039900Y0020332D02*
X0037225Y0020332D01*
X0035627Y0021930D02*
X0039900Y0021930D01*
X0032700Y0021930D01*
X0032700Y0023529D02*
X0039900Y0023529D01*
X0034028Y0023529D01*
X0033700Y0025127D02*
X0039900Y0025127D01*
X0032700Y0025127D01*
X0032700Y0026726D02*
X0039900Y0026726D01*
X0033700Y0026726D01*
X0033629Y0028324D02*
X0039971Y0028324D01*
X0032517Y0028324D01*
X0032967Y0029923D02*
X0040633Y0029923D01*
X0031710Y0029923D01*
X0028100Y0029923D02*
X0027700Y0029923D01*
X0027700Y0028324D02*
X0028100Y0028324D01*
X0028100Y0026726D02*
X0027700Y0026726D01*
X0027700Y0025127D02*
X0028100Y0025127D01*
X0028100Y0023529D02*
X0027700Y0023529D01*
X0027700Y0021930D02*
X0028100Y0021930D01*
X0028100Y0020332D02*
X0027700Y0020332D01*
X0027700Y0018733D02*
X0028100Y0018733D01*
X0028100Y0017134D02*
X0027700Y0017134D01*
X0029865Y0015536D02*
X0030707Y0015536D01*
X0032306Y0013937D02*
X0019600Y0013937D01*
X0168447Y0013937D01*
X0168567Y0013937D02*
X0279000Y0013937D01*
X0269594Y0013937D01*
X0267996Y0012339D02*
X0280230Y0012339D01*
X0018370Y0012339D01*
X0033904Y0012339D01*
X0035503Y0010740D02*
X0016771Y0010740D01*
X0281829Y0010740D01*
X0266397Y0010740D01*
X0264799Y0009142D02*
X0283427Y0009142D01*
X0015173Y0009142D01*
X0037101Y0009142D01*
X0039900Y0020332D02*
X0032654Y0020332D01*
X0007498Y0023529D02*
X0006600Y0023529D01*
X0007498Y0023529D01*
X0006829Y0010740D02*
X0006600Y0010740D01*
X0006829Y0010740D01*
X0006600Y0009142D02*
X0008427Y0009142D01*
X0006600Y0009142D01*
X0006600Y0007543D02*
X0295701Y0007543D01*
X0006600Y0007543D01*
X0052460Y0050703D02*
X0053100Y0050703D01*
X0080013Y0042711D02*
X0083587Y0042711D01*
X0085087Y0042711D02*
X0080013Y0042711D01*
X0081029Y0044309D02*
X0082571Y0044309D01*
X0083680Y0044309D02*
X0081029Y0044309D01*
X0081500Y0045908D02*
X0082100Y0045908D01*
X0081500Y0045908D02*
X0083150Y0045908D01*
X0083100Y0047506D02*
X0081500Y0047506D01*
X0082100Y0047506D01*
X0082100Y0049105D02*
X0081500Y0049105D01*
X0083100Y0049105D01*
X0083100Y0050703D02*
X0081500Y0050703D01*
X0082100Y0050703D01*
X0082959Y0052302D02*
X0083100Y0052302D01*
X0087700Y0052302D02*
X0088100Y0052302D01*
X0088100Y0053900D02*
X0087700Y0053900D01*
X0087700Y0055499D02*
X0088100Y0055499D01*
X0088100Y0057097D02*
X0087754Y0057097D01*
X0089592Y0057097D02*
X0101949Y0057097D01*
X0091605Y0057097D01*
X0091727Y0055499D02*
X0100623Y0055499D01*
X0092977Y0055499D01*
X0092525Y0053900D02*
X0099961Y0053900D01*
X0093639Y0053900D01*
X0093700Y0052302D02*
X0099900Y0052302D01*
X0092700Y0052302D01*
X0092700Y0050703D02*
X0099900Y0050703D01*
X0093700Y0050703D01*
X0093700Y0049105D02*
X0099900Y0049105D01*
X0092700Y0049105D01*
X0092700Y0047506D02*
X0099900Y0047506D01*
X0093700Y0047506D01*
X0093700Y0045908D02*
X0099900Y0045908D01*
X0092650Y0045908D01*
X0092120Y0044309D02*
X0100371Y0044309D01*
X0093229Y0044309D01*
X0092213Y0042711D02*
X0101387Y0042711D01*
X0090713Y0042711D01*
X0088100Y0042711D02*
X0087700Y0042711D01*
X0087700Y0044309D02*
X0088100Y0044309D01*
X0088100Y0045908D02*
X0087700Y0045908D01*
X0087700Y0047506D02*
X0088100Y0047506D01*
X0088100Y0049105D02*
X0087700Y0049105D01*
X0087700Y0050703D02*
X0088100Y0050703D01*
X0089353Y0058696D02*
X0103039Y0058696D01*
X0089353Y0058696D01*
X0090951Y0060294D02*
X0104637Y0060294D01*
X0090951Y0060294D01*
X0092550Y0061893D02*
X0106236Y0061893D01*
X0092550Y0061893D01*
X0094148Y0063491D02*
X0107834Y0063491D01*
X0094148Y0063491D01*
X0095747Y0065090D02*
X0109433Y0065090D01*
X0095747Y0065090D01*
X0111156Y0055499D02*
X0112823Y0055499D01*
X0114073Y0055499D02*
X0111156Y0055499D01*
X0111439Y0053900D02*
X0112161Y0053900D01*
X0111439Y0053900D02*
X0113275Y0053900D01*
X0113100Y0052302D02*
X0111500Y0052302D01*
X0112100Y0052302D01*
X0112100Y0050703D02*
X0111500Y0050703D01*
X0113100Y0050703D01*
X0113100Y0049105D02*
X0111500Y0049105D01*
X0112100Y0049105D01*
X0112100Y0047506D02*
X0111500Y0047506D01*
X0113100Y0047506D01*
X0113150Y0045908D02*
X0111500Y0045908D01*
X0112100Y0045908D01*
X0112571Y0044309D02*
X0111029Y0044309D01*
X0113680Y0044309D01*
X0113587Y0042711D02*
X0110013Y0042711D01*
X0115087Y0042711D01*
X0113900Y0037915D02*
X0091900Y0037915D01*
X0091900Y0036317D02*
X0113900Y0036317D01*
X0113900Y0034718D02*
X0091900Y0034718D01*
X0091900Y0033120D02*
X0113900Y0033120D01*
X0113900Y0031521D02*
X0109381Y0031521D01*
X0116281Y0031521D01*
X0116057Y0031448D02*
X0115384Y0031105D01*
X0114773Y0030661D01*
X0114239Y0030127D01*
X0113795Y0029516D01*
X0113452Y0028843D01*
X0113218Y0028124D01*
X0113100Y0027378D01*
X0113100Y0024200D01*
X0117700Y0024200D01*
X0117700Y0031800D01*
X0117522Y0031800D01*
X0116776Y0031682D01*
X0116057Y0031448D01*
X0117700Y0031521D02*
X0118100Y0031521D01*
X0118100Y0031800D02*
X0118100Y0024200D01*
X0117700Y0024200D01*
X0117700Y0023800D01*
X0113100Y0023800D01*
X0113100Y0020622D01*
X0113218Y0019876D01*
X0113452Y0019157D01*
X0113795Y0018484D01*
X0114239Y0017873D01*
X0114773Y0017339D01*
X0115384Y0016895D01*
X0116057Y0016552D01*
X0116776Y0016318D01*
X0117522Y0016200D01*
X0117700Y0016200D01*
X0117700Y0023800D01*
X0118100Y0023800D01*
X0118100Y0024200D01*
X0122700Y0024200D01*
X0122700Y0027378D01*
X0122582Y0028124D01*
X0122348Y0028843D01*
X0122005Y0029516D01*
X0121561Y0030127D01*
X0121027Y0030661D01*
X0120416Y0031105D01*
X0119743Y0031448D01*
X0119024Y0031682D01*
X0118278Y0031800D01*
X0118100Y0031800D01*
X0119519Y0031521D02*
X0132019Y0031521D01*
X0121900Y0031521D01*
X0121900Y0033120D02*
X0142800Y0033120D01*
X0142800Y0034718D02*
X0121900Y0034718D01*
X0121900Y0036317D02*
X0142800Y0036317D01*
X0142800Y0037915D02*
X0121900Y0037915D01*
X0121710Y0029923D02*
X0130633Y0029923D01*
X0122967Y0029923D01*
X0122517Y0028324D02*
X0129971Y0028324D01*
X0123629Y0028324D01*
X0123700Y0026726D02*
X0129900Y0026726D01*
X0122700Y0026726D01*
X0122700Y0025127D02*
X0129900Y0025127D01*
X0123700Y0025127D01*
X0124028Y0023529D02*
X0129900Y0023529D01*
X0122700Y0023529D01*
X0122700Y0023800D02*
X0118100Y0023800D01*
X0118100Y0016200D01*
X0118278Y0016200D01*
X0119024Y0016318D01*
X0119743Y0016552D01*
X0120416Y0016895D01*
X0121027Y0017339D01*
X0121561Y0017873D01*
X0122005Y0018484D01*
X0122348Y0019157D01*
X0122582Y0019876D01*
X0122700Y0020622D01*
X0122700Y0023800D01*
X0122700Y0021930D02*
X0129900Y0021930D01*
X0125627Y0021930D01*
X0127225Y0020332D02*
X0129900Y0020332D01*
X0122654Y0020332D01*
X0122132Y0018733D02*
X0130361Y0018733D01*
X0128824Y0018733D01*
X0130422Y0017134D02*
X0131363Y0017134D01*
X0120746Y0017134D01*
X0118100Y0017134D02*
X0117700Y0017134D01*
X0117700Y0018733D02*
X0118100Y0018733D01*
X0118100Y0020332D02*
X0117700Y0020332D01*
X0117700Y0021930D02*
X0118100Y0021930D01*
X0118100Y0023529D02*
X0117700Y0023529D01*
X0117700Y0025127D02*
X0118100Y0025127D01*
X0118100Y0026726D02*
X0117700Y0026726D01*
X0117700Y0028324D02*
X0118100Y0028324D01*
X0118100Y0029923D02*
X0117700Y0029923D01*
X0114090Y0029923D02*
X0110767Y0029923D01*
X0112833Y0029923D01*
X0113283Y0028324D02*
X0111429Y0028324D01*
X0112171Y0028324D01*
X0112100Y0026726D02*
X0111500Y0026726D01*
X0113100Y0026726D01*
X0113100Y0025127D02*
X0111500Y0025127D01*
X0112100Y0025127D01*
X0112100Y0023529D02*
X0111500Y0023529D01*
X0113100Y0023529D01*
X0113100Y0021930D02*
X0111500Y0021930D01*
X0112100Y0021930D01*
X0112100Y0020332D02*
X0111500Y0020332D01*
X0113146Y0020332D01*
X0113668Y0018733D02*
X0111039Y0018733D01*
X0112561Y0018733D01*
X0113563Y0017134D02*
X0110037Y0017134D01*
X0115054Y0017134D01*
X0101363Y0017134D02*
X0100422Y0017134D01*
X0101363Y0017134D02*
X0090746Y0017134D01*
X0091027Y0017339D02*
X0091561Y0017873D01*
X0092005Y0018484D01*
X0092348Y0019157D01*
X0092582Y0019876D01*
X0092700Y0020622D01*
X0092700Y0023800D01*
X0088100Y0023800D01*
X0088100Y0024200D01*
X0087700Y0024200D01*
X0087700Y0031800D01*
X0087522Y0031800D01*
X0086776Y0031682D01*
X0086057Y0031448D01*
X0085384Y0031105D01*
X0084773Y0030661D01*
X0084239Y0030127D01*
X0083795Y0029516D01*
X0083452Y0028843D01*
X0083218Y0028124D01*
X0083100Y0027378D01*
X0083100Y0024200D01*
X0087700Y0024200D01*
X0087700Y0023800D01*
X0083100Y0023800D01*
X0083100Y0020622D01*
X0083218Y0019876D01*
X0083452Y0019157D01*
X0083795Y0018484D01*
X0084239Y0017873D01*
X0084773Y0017339D01*
X0085384Y0016895D01*
X0086057Y0016552D01*
X0086776Y0016318D01*
X0087522Y0016200D01*
X0087700Y0016200D01*
X0087700Y0023800D01*
X0088100Y0023800D01*
X0088100Y0016200D01*
X0088278Y0016200D01*
X0089024Y0016318D01*
X0089743Y0016552D01*
X0090416Y0016895D01*
X0091027Y0017339D01*
X0092132Y0018733D02*
X0100361Y0018733D01*
X0098824Y0018733D01*
X0099900Y0020332D02*
X0097225Y0020332D01*
X0095627Y0021930D02*
X0099900Y0021930D01*
X0092700Y0021930D01*
X0092700Y0023529D02*
X0099900Y0023529D01*
X0094028Y0023529D01*
X0092700Y0024200D02*
X0092700Y0027378D01*
X0092582Y0028124D01*
X0092348Y0028843D01*
X0092005Y0029516D01*
X0091561Y0030127D01*
X0091027Y0030661D01*
X0090416Y0031105D01*
X0089743Y0031448D01*
X0089024Y0031682D01*
X0088278Y0031800D01*
X0088100Y0031800D01*
X0088100Y0024200D01*
X0092700Y0024200D01*
X0092700Y0025127D02*
X0099900Y0025127D01*
X0093700Y0025127D01*
X0093700Y0026726D02*
X0099900Y0026726D01*
X0092700Y0026726D01*
X0092517Y0028324D02*
X0099971Y0028324D01*
X0093629Y0028324D01*
X0092967Y0029923D02*
X0100633Y0029923D01*
X0091710Y0029923D01*
X0091900Y0031521D02*
X0102019Y0031521D01*
X0089519Y0031521D01*
X0088100Y0031521D02*
X0087700Y0031521D01*
X0086281Y0031521D02*
X0079381Y0031521D01*
X0083900Y0031521D01*
X0084090Y0029923D02*
X0080767Y0029923D01*
X0082833Y0029923D01*
X0083283Y0028324D02*
X0081429Y0028324D01*
X0082171Y0028324D01*
X0082100Y0026726D02*
X0081500Y0026726D01*
X0083100Y0026726D01*
X0083100Y0025127D02*
X0081500Y0025127D01*
X0082100Y0025127D01*
X0082100Y0023529D02*
X0081500Y0023529D01*
X0083100Y0023529D01*
X0083100Y0021930D02*
X0081500Y0021930D01*
X0082100Y0021930D01*
X0082100Y0020332D02*
X0081500Y0020332D01*
X0083146Y0020332D01*
X0083668Y0018733D02*
X0081039Y0018733D01*
X0082561Y0018733D01*
X0083563Y0017134D02*
X0080037Y0017134D01*
X0085054Y0017134D01*
X0087700Y0017134D02*
X0088100Y0017134D01*
X0088100Y0018733D02*
X0087700Y0018733D01*
X0087700Y0020332D02*
X0088100Y0020332D01*
X0088100Y0021930D02*
X0087700Y0021930D01*
X0087700Y0023529D02*
X0088100Y0023529D01*
X0088100Y0025127D02*
X0087700Y0025127D01*
X0087700Y0026726D02*
X0088100Y0026726D01*
X0088100Y0028324D02*
X0087700Y0028324D01*
X0087700Y0029923D02*
X0088100Y0029923D01*
X0092654Y0020332D02*
X0099900Y0020332D01*
X0144799Y0009142D02*
X0148801Y0009142D01*
X0147203Y0010740D02*
X0146397Y0010740D01*
X0193774Y0026000D02*
X0194822Y0026000D01*
X0196218Y0026579D01*
X0196748Y0027108D01*
X0197278Y0026579D01*
X0198674Y0026000D01*
X0198814Y0026000D01*
X0198633Y0025562D01*
X0198633Y0025456D01*
X0198278Y0025603D01*
X0193938Y0025603D01*
X0193774Y0026000D01*
X0196365Y0026726D02*
X0197131Y0026726D01*
X0197330Y0037915D02*
X0203557Y0037915D01*
X0197330Y0037915D01*
X0207773Y0039514D02*
X0209823Y0039514D01*
X0207773Y0039514D01*
X0211777Y0039514D02*
X0223429Y0039514D01*
X0211777Y0039514D01*
X0214039Y0037915D02*
X0225028Y0037915D01*
X0214039Y0037915D01*
X0214600Y0036317D02*
X0226400Y0036317D01*
X0214600Y0036317D01*
X0214600Y0034718D02*
X0226400Y0034718D01*
X0214600Y0034718D01*
X0214600Y0033120D02*
X0227844Y0033120D01*
X0214600Y0033120D01*
X0214600Y0031521D02*
X0229442Y0031521D01*
X0214600Y0031521D01*
X0214600Y0029923D02*
X0274266Y0029923D01*
X0275864Y0031521D02*
X0244158Y0031521D01*
X0295701Y0031521D01*
X0287178Y0031521D01*
X0285579Y0029923D02*
X0295701Y0029923D01*
X0214600Y0029923D01*
X0214302Y0028324D02*
X0272667Y0028324D01*
X0271069Y0026726D02*
X0213254Y0026726D01*
X0295701Y0026726D01*
X0282382Y0026726D01*
X0283981Y0028324D02*
X0295701Y0028324D01*
X0214302Y0028324D01*
X0214366Y0025127D02*
X0269470Y0025127D01*
X0267872Y0023529D02*
X0214600Y0023529D01*
X0282498Y0023529D01*
X0279185Y0023529D01*
X0280784Y0025127D02*
X0295701Y0025127D01*
X0214366Y0025127D01*
X0214600Y0021930D02*
X0266273Y0021930D01*
X0264675Y0020332D02*
X0214600Y0020332D01*
X0279301Y0020332D01*
X0275988Y0020332D01*
X0277587Y0021930D02*
X0280899Y0021930D01*
X0214600Y0021930D01*
X0214600Y0018733D02*
X0263076Y0018733D01*
X0261478Y0017134D02*
X0214600Y0017134D01*
X0279000Y0017134D01*
X0272791Y0017134D01*
X0271193Y0015536D02*
X0279000Y0015536D01*
X0213910Y0015536D01*
X0214600Y0018733D02*
X0279000Y0018733D01*
X0274390Y0018733D01*
X0279000Y0020031D02*
X0279000Y0013569D01*
X0283569Y0009000D01*
X0290031Y0009000D01*
X0294600Y0013569D01*
X0294600Y0020031D01*
X0290031Y0024600D01*
X0283569Y0024600D01*
X0279000Y0020031D01*
X0279000Y0013569D01*
X0283569Y0009000D01*
X0290031Y0009000D01*
X0294600Y0013569D01*
X0294600Y0020031D01*
X0290031Y0024600D01*
X0283569Y0024600D01*
X0279000Y0020031D01*
X0291102Y0023529D02*
X0295701Y0023529D01*
X0291102Y0023529D01*
X0292701Y0021930D02*
X0295701Y0021930D01*
X0292701Y0021930D01*
X0294299Y0020332D02*
X0295701Y0020332D01*
X0294299Y0020332D01*
X0294600Y0018733D02*
X0295701Y0018733D01*
X0294600Y0018733D01*
X0294600Y0017134D02*
X0295701Y0017134D01*
X0294600Y0017134D01*
X0294600Y0015536D02*
X0295701Y0015536D01*
X0294600Y0015536D01*
X0294600Y0013937D02*
X0295701Y0013937D01*
X0294600Y0013937D01*
X0295701Y0012339D02*
X0293370Y0012339D01*
X0295701Y0012339D01*
X0295701Y0010740D02*
X0291771Y0010740D01*
X0295701Y0010740D01*
X0295701Y0009142D02*
X0290173Y0009142D01*
X0295701Y0009142D01*
X0295701Y0033120D02*
X0274342Y0033120D01*
X0277463Y0033120D01*
X0275941Y0034718D02*
X0279061Y0034718D01*
X0277539Y0036317D02*
X0280660Y0036317D01*
X0279138Y0037915D02*
X0282258Y0037915D01*
X0280736Y0039514D02*
X0283857Y0039514D01*
X0282335Y0041112D02*
X0285455Y0041112D01*
X0283933Y0042711D02*
X0287054Y0042711D01*
X0287800Y0044309D02*
X0285531Y0044309D01*
X0295701Y0044309D01*
X0295701Y0042711D02*
X0283933Y0042711D01*
X0282335Y0041112D02*
X0295701Y0041112D01*
X0295701Y0039514D02*
X0295171Y0039514D01*
X0295701Y0039514D02*
X0280736Y0039514D01*
X0279138Y0037915D02*
X0295701Y0037915D01*
X0293572Y0037915D01*
X0291973Y0036317D02*
X0295701Y0036317D01*
X0277539Y0036317D01*
X0275941Y0034718D02*
X0295701Y0034718D01*
X0290375Y0034718D01*
X0288776Y0033120D02*
X0295701Y0033120D01*
X0295701Y0045908D02*
X0286193Y0045908D01*
X0287800Y0045908D01*
X0287800Y0047506D02*
X0286200Y0047506D01*
X0295701Y0047506D01*
X0295701Y0049105D02*
X0286200Y0049105D01*
X0287800Y0049105D01*
X0287800Y0050703D02*
X0287244Y0050703D01*
X0295701Y0050703D01*
X0295701Y0052302D02*
X0287900Y0052302D01*
X0287900Y0053900D02*
X0295701Y0053900D01*
X0295701Y0055499D02*
X0287900Y0055499D01*
X0287900Y0057097D02*
X0295701Y0057097D01*
X0295701Y0058696D02*
X0287900Y0058696D01*
X0287900Y0060294D02*
X0295701Y0060294D01*
X0295701Y0061893D02*
X0287660Y0061893D01*
X0287800Y0061893D01*
X0287800Y0063491D02*
X0286998Y0063491D01*
X0295701Y0063491D01*
X0295701Y0065090D02*
X0285437Y0065090D01*
X0287800Y0065090D01*
X0287800Y0066688D02*
X0282911Y0066688D01*
X0284509Y0068287D02*
X0287800Y0068287D01*
X0287800Y0069885D02*
X0286108Y0069885D01*
X0280057Y0076279D02*
X0256200Y0076279D01*
X0295701Y0076279D01*
X0292977Y0076279D01*
X0291379Y0077878D02*
X0295701Y0077878D01*
X0256200Y0077878D01*
X0281655Y0077878D01*
X0282400Y0079476D02*
X0256200Y0079476D01*
X0295701Y0079476D01*
X0291200Y0079476D01*
X0291200Y0081075D02*
X0295701Y0081075D01*
X0256200Y0081075D01*
X0282400Y0081075D01*
X0282400Y0082673D02*
X0256200Y0082673D01*
X0295701Y0082673D01*
X0291200Y0082673D01*
X0291200Y0084272D02*
X0295701Y0084272D01*
X0256200Y0084272D01*
X0282400Y0084272D01*
X0282400Y0085870D02*
X0256200Y0085870D01*
X0295701Y0085870D01*
X0291200Y0085870D01*
X0291200Y0087469D02*
X0295701Y0087469D01*
X0256200Y0087469D01*
X0282400Y0087469D01*
X0282400Y0089068D02*
X0256200Y0089068D01*
X0295701Y0089068D01*
X0291200Y0089068D01*
X0291200Y0090666D02*
X0295701Y0090666D01*
X0256200Y0090666D01*
X0282400Y0090666D01*
X0282400Y0092265D02*
X0256200Y0092265D01*
X0295701Y0092265D01*
X0291200Y0092265D01*
X0291200Y0093863D02*
X0295701Y0093863D01*
X0256200Y0093863D01*
X0282400Y0093863D01*
X0282400Y0095462D02*
X0256200Y0095462D01*
X0295701Y0095462D01*
X0291200Y0095462D01*
X0291200Y0097060D02*
X0295701Y0097060D01*
X0256200Y0097060D01*
X0282400Y0097060D01*
X0282400Y0098659D02*
X0256200Y0098659D01*
X0295701Y0098659D01*
X0291200Y0098659D01*
X0291200Y0100257D02*
X0295701Y0100257D01*
X0256200Y0100257D01*
X0282400Y0100257D01*
X0282400Y0101856D02*
X0256200Y0101856D01*
X0295701Y0101856D01*
X0291200Y0101856D01*
X0291200Y0103454D02*
X0295701Y0103454D01*
X0275180Y0103454D01*
X0282400Y0103454D01*
X0282400Y0105053D02*
X0278785Y0105053D01*
X0295701Y0105053D01*
X0291200Y0105053D01*
X0291200Y0106651D02*
X0295701Y0106651D01*
X0280753Y0106651D01*
X0282400Y0106651D01*
X0282043Y0107941D02*
X0279659Y0105557D01*
X0276741Y0103872D01*
X0273485Y0103000D01*
X0270115Y0103000D01*
X0266859Y0103872D01*
X0263941Y0105557D01*
X0261557Y0107941D01*
X0259872Y0110859D01*
X0259000Y0114115D01*
X0259000Y0117485D01*
X0259872Y0120741D01*
X0261557Y0123659D01*
X0263941Y0126043D01*
X0266859Y0127728D01*
X0270115Y0128600D01*
X0273485Y0128600D01*
X0276741Y0127728D01*
X0279659Y0126043D01*
X0282043Y0123659D01*
X0283728Y0120741D01*
X0284600Y0117485D01*
X0284600Y0114115D01*
X0283728Y0110859D01*
X0282043Y0107941D01*
X0282221Y0108250D02*
X0282400Y0108250D01*
X0282221Y0108250D02*
X0295701Y0108250D01*
X0291200Y0108250D01*
X0291200Y0109848D02*
X0295701Y0109848D01*
X0283144Y0109848D01*
X0283885Y0111447D02*
X0295701Y0111447D01*
X0291200Y0111447D01*
X0291200Y0113045D02*
X0295701Y0113045D01*
X0284313Y0113045D01*
X0284600Y0114644D02*
X0295701Y0114644D01*
X0291200Y0114644D01*
X0291200Y0116242D02*
X0295701Y0116242D01*
X0284600Y0116242D01*
X0284505Y0117841D02*
X0295701Y0117841D01*
X0291200Y0117841D01*
X0291200Y0119439D02*
X0295701Y0119439D01*
X0284076Y0119439D01*
X0283556Y0121038D02*
X0295701Y0121038D01*
X0291200Y0121038D01*
X0291200Y0122636D02*
X0295701Y0122636D01*
X0282633Y0122636D01*
X0282400Y0124235D02*
X0281467Y0124235D01*
X0295701Y0124235D01*
X0291200Y0124235D01*
X0291200Y0125833D02*
X0295701Y0125833D01*
X0279869Y0125833D01*
X0281544Y0125833D01*
X0279946Y0127432D02*
X0277253Y0127432D01*
X0295701Y0127432D01*
X0291200Y0127432D01*
X0290639Y0129030D02*
X0295701Y0129030D01*
X0260253Y0129030D01*
X0278347Y0129030D01*
X0277430Y0130629D02*
X0261851Y0130629D01*
X0295701Y0130629D01*
X0289194Y0130629D01*
X0287595Y0132227D02*
X0295701Y0132227D01*
X0263450Y0132227D01*
X0277243Y0132227D01*
X0277243Y0133826D02*
X0265048Y0133826D01*
X0295701Y0133826D01*
X0286043Y0133826D01*
X0286043Y0135424D02*
X0295701Y0135424D01*
X0266085Y0135424D01*
X0277243Y0135424D01*
X0277243Y0137023D02*
X0266357Y0137023D01*
X0295701Y0137023D01*
X0286043Y0137023D01*
X0286043Y0138621D02*
X0295701Y0138621D01*
X0266357Y0138621D01*
X0277243Y0138621D01*
X0277243Y0140220D02*
X0266357Y0140220D01*
X0295701Y0140220D01*
X0286043Y0140220D01*
X0286043Y0141818D02*
X0295701Y0141818D01*
X0266357Y0141818D01*
X0277243Y0141818D01*
X0277243Y0143417D02*
X0266357Y0143417D01*
X0295701Y0143417D01*
X0286043Y0143417D01*
X0286043Y0145015D02*
X0295701Y0145015D01*
X0266357Y0145015D01*
X0277243Y0145015D01*
X0277243Y0146614D02*
X0266357Y0146614D01*
X0295701Y0146614D01*
X0286043Y0146614D01*
X0286043Y0148212D02*
X0295701Y0148212D01*
X0283294Y0148212D01*
X0283687Y0148340D02*
X0284433Y0148721D01*
X0285112Y0149213D01*
X0285704Y0149806D01*
X0286197Y0150484D01*
X0286577Y0151231D01*
X0286836Y0152028D01*
X0286968Y0152856D01*
X0286968Y0156425D01*
X0282018Y0156425D01*
X0282018Y0157175D01*
X0286968Y0157175D01*
X0286968Y0160744D01*
X0286836Y0161572D01*
X0286577Y0162369D01*
X0286197Y0163116D01*
X0285704Y0163794D01*
X0285112Y0164387D01*
X0284433Y0164879D01*
X0283687Y0165260D01*
X0282889Y0165519D01*
X0282062Y0165650D01*
X0282018Y0165650D01*
X0282018Y0157175D01*
X0281267Y0157175D01*
X0281267Y0156425D01*
X0276318Y0156425D01*
X0276318Y0152856D01*
X0276449Y0152028D01*
X0276708Y0151231D01*
X0277088Y0150484D01*
X0277581Y0149806D01*
X0278174Y0149213D01*
X0278852Y0148721D01*
X0279598Y0148340D01*
X0280396Y0148081D01*
X0281223Y0147950D01*
X0281267Y0147950D01*
X0281267Y0156425D01*
X0282018Y0156425D01*
X0282018Y0147950D01*
X0282062Y0147950D01*
X0282889Y0148081D01*
X0283687Y0148340D01*
X0282018Y0148212D02*
X0281267Y0148212D01*
X0279991Y0148212D02*
X0266357Y0148212D01*
X0277243Y0148212D01*
X0277577Y0149811D02*
X0267369Y0149811D01*
X0276231Y0149811D01*
X0276650Y0151409D02*
X0268031Y0151409D01*
X0275569Y0151409D01*
X0275318Y0153008D02*
X0268282Y0153008D01*
X0276318Y0153008D01*
X0276318Y0154606D02*
X0268282Y0154606D01*
X0275318Y0154606D01*
X0275318Y0156205D02*
X0268282Y0156205D01*
X0276318Y0156205D01*
X0276318Y0157175D02*
X0281267Y0157175D01*
X0281267Y0165650D01*
X0281223Y0165650D01*
X0280396Y0165519D01*
X0279598Y0165260D01*
X0278852Y0164879D01*
X0278174Y0164387D01*
X0277581Y0163794D01*
X0277088Y0163116D01*
X0276708Y0162369D01*
X0276449Y0161572D01*
X0276318Y0160744D01*
X0276318Y0157175D01*
X0276318Y0157803D02*
X0268282Y0157803D01*
X0275318Y0157803D01*
X0275318Y0159402D02*
X0268282Y0159402D01*
X0276318Y0159402D01*
X0276358Y0161001D02*
X0268282Y0161001D01*
X0275318Y0161001D01*
X0275738Y0162599D02*
X0267862Y0162599D01*
X0276825Y0162599D01*
X0276570Y0164198D02*
X0267030Y0164198D01*
X0277984Y0164198D01*
X0278323Y0165796D02*
X0265277Y0165796D01*
X0295701Y0165796D01*
X0284962Y0165796D01*
X0285301Y0164198D02*
X0295701Y0164198D01*
X0286715Y0164198D01*
X0286460Y0162599D02*
X0295701Y0162599D01*
X0287547Y0162599D01*
X0287968Y0161001D02*
X0295701Y0161001D01*
X0286927Y0161001D01*
X0286968Y0159402D02*
X0295701Y0159402D01*
X0287968Y0159402D01*
X0287968Y0157803D02*
X0295701Y0157803D01*
X0286968Y0157803D01*
X0286968Y0156205D02*
X0295701Y0156205D01*
X0287968Y0156205D01*
X0287968Y0154606D02*
X0295701Y0154606D01*
X0286968Y0154606D01*
X0286968Y0153008D02*
X0295701Y0153008D01*
X0287968Y0153008D01*
X0287716Y0151409D02*
X0295701Y0151409D01*
X0286635Y0151409D01*
X0287054Y0149811D02*
X0295701Y0149811D01*
X0285708Y0149811D01*
X0282018Y0149811D02*
X0281267Y0149811D01*
X0281267Y0151409D02*
X0282018Y0151409D01*
X0282018Y0153008D02*
X0281267Y0153008D01*
X0281267Y0154606D02*
X0282018Y0154606D01*
X0282018Y0156205D02*
X0281267Y0156205D01*
X0281267Y0157803D02*
X0282018Y0157803D01*
X0282018Y0159402D02*
X0281267Y0159402D01*
X0281267Y0161001D02*
X0282018Y0161001D01*
X0282018Y0162599D02*
X0281267Y0162599D01*
X0281267Y0164198D02*
X0282018Y0164198D01*
X0295701Y0167395D02*
X0246200Y0167395D01*
X0295701Y0167395D01*
X0295701Y0168993D02*
X0246200Y0168993D01*
X0295701Y0168993D01*
X0295701Y0170592D02*
X0246200Y0170592D01*
X0295701Y0170592D01*
X0295701Y0172190D02*
X0246200Y0172190D01*
X0295701Y0172190D01*
X0295701Y0173789D02*
X0246425Y0173789D01*
X0295701Y0173789D01*
X0295701Y0175387D02*
X0247200Y0175387D01*
X0295701Y0175387D01*
X0295701Y0176986D02*
X0247200Y0176986D01*
X0295701Y0176986D01*
X0295701Y0178584D02*
X0247200Y0178584D01*
X0295701Y0178584D01*
X0295701Y0180183D02*
X0291214Y0180183D01*
X0295701Y0180183D01*
X0295701Y0181781D02*
X0292812Y0181781D01*
X0295701Y0181781D01*
X0295701Y0183380D02*
X0294411Y0183380D01*
X0295701Y0183380D01*
X0294600Y0183569D02*
X0290031Y0179000D01*
X0283569Y0179000D01*
X0279000Y0183569D01*
X0279000Y0190031D01*
X0283569Y0194600D01*
X0290031Y0194600D01*
X0294600Y0190031D01*
X0294600Y0183569D01*
X0290031Y0179000D01*
X0283569Y0179000D01*
X0279000Y0183569D01*
X0279000Y0190031D01*
X0283569Y0194600D01*
X0290031Y0194600D01*
X0294600Y0190031D01*
X0294600Y0183569D01*
X0294600Y0184978D02*
X0295701Y0184978D01*
X0294600Y0184978D01*
X0294600Y0186577D02*
X0295701Y0186577D01*
X0294600Y0186577D01*
X0294600Y0188175D02*
X0295701Y0188175D01*
X0294600Y0188175D01*
X0294600Y0189774D02*
X0295701Y0189774D01*
X0294600Y0189774D01*
X0295701Y0191372D02*
X0293259Y0191372D01*
X0295701Y0191372D01*
X0295701Y0192971D02*
X0291660Y0192971D01*
X0295701Y0192971D01*
X0295701Y0194569D02*
X0290062Y0194569D01*
X0295701Y0194569D01*
X0279000Y0189774D02*
X0235049Y0189774D01*
X0279000Y0189774D01*
X0279000Y0188175D02*
X0236647Y0188175D01*
X0279000Y0188175D01*
X0279000Y0186577D02*
X0238246Y0186577D01*
X0279000Y0186577D01*
X0279000Y0184978D02*
X0239844Y0184978D01*
X0279000Y0184978D01*
X0279189Y0183380D02*
X0241443Y0183380D01*
X0279189Y0183380D01*
X0280788Y0181781D02*
X0244456Y0181781D01*
X0280788Y0181781D01*
X0282386Y0180183D02*
X0246054Y0180183D01*
X0282386Y0180183D01*
X0258638Y0165796D02*
X0246200Y0165796D01*
X0258638Y0165796D01*
X0256885Y0164198D02*
X0246200Y0164198D01*
X0256885Y0164198D01*
X0256053Y0162599D02*
X0246200Y0162599D01*
X0256053Y0162599D01*
X0255632Y0161001D02*
X0246200Y0161001D01*
X0255632Y0161001D01*
X0255632Y0159402D02*
X0246835Y0159402D01*
X0255632Y0159402D01*
X0255632Y0157803D02*
X0247200Y0157803D01*
X0255632Y0157803D01*
X0255632Y0156205D02*
X0247200Y0156205D01*
X0255632Y0156205D01*
X0255632Y0154606D02*
X0247200Y0154606D01*
X0255632Y0154606D01*
X0255632Y0153008D02*
X0246200Y0153008D01*
X0255632Y0153008D01*
X0255884Y0151409D02*
X0246200Y0151409D01*
X0255884Y0151409D01*
X0256546Y0149811D02*
X0246200Y0149811D01*
X0256546Y0149811D01*
X0257557Y0148212D02*
X0246200Y0148212D01*
X0257557Y0148212D01*
X0257557Y0146614D02*
X0246200Y0146614D01*
X0257557Y0146614D01*
X0257557Y0145015D02*
X0246200Y0145015D01*
X0257557Y0145015D01*
X0257557Y0143417D02*
X0246200Y0143417D01*
X0257557Y0143417D01*
X0257557Y0141818D02*
X0246200Y0141818D01*
X0257557Y0141818D01*
X0257557Y0140220D02*
X0246200Y0140220D01*
X0257557Y0140220D01*
X0257399Y0138621D02*
X0247200Y0138621D01*
X0257399Y0138621D01*
X0255800Y0137023D02*
X0247200Y0137023D01*
X0255800Y0137023D01*
X0254202Y0135424D02*
X0247200Y0135424D01*
X0254202Y0135424D01*
X0252603Y0133826D02*
X0246463Y0133826D01*
X0252603Y0133826D01*
X0251005Y0132227D02*
X0246200Y0132227D01*
X0251005Y0132227D01*
X0249406Y0130629D02*
X0246200Y0130629D01*
X0249406Y0130629D01*
X0247961Y0129030D02*
X0246200Y0129030D01*
X0247961Y0129030D01*
X0247400Y0127432D02*
X0246200Y0127432D01*
X0247400Y0127432D01*
X0247400Y0125833D02*
X0246200Y0125833D01*
X0247400Y0125833D01*
X0247400Y0124235D02*
X0246200Y0124235D01*
X0247400Y0124235D01*
X0247400Y0122636D02*
X0246200Y0122636D01*
X0247400Y0122636D01*
X0247400Y0121038D02*
X0246200Y0121038D01*
X0247400Y0121038D01*
X0247400Y0119439D02*
X0246798Y0119439D01*
X0247400Y0119439D01*
X0247400Y0117841D02*
X0247200Y0117841D01*
X0247400Y0117841D01*
X0247400Y0116242D02*
X0247200Y0116242D01*
X0247400Y0116242D01*
X0247400Y0114644D02*
X0247200Y0114644D01*
X0247400Y0114644D01*
X0247400Y0113045D02*
X0246200Y0113045D01*
X0247400Y0113045D01*
X0247400Y0111447D02*
X0246200Y0111447D01*
X0247400Y0111447D01*
X0247400Y0109848D02*
X0246200Y0109848D01*
X0247400Y0109848D01*
X0247400Y0108250D02*
X0246200Y0108250D01*
X0247400Y0108250D01*
X0247400Y0106651D02*
X0246200Y0106651D01*
X0247400Y0106651D01*
X0247400Y0105053D02*
X0246200Y0105053D01*
X0247400Y0105053D01*
X0247400Y0103454D02*
X0246200Y0103454D01*
X0247400Y0103454D01*
X0247400Y0101856D02*
X0246200Y0101856D01*
X0247400Y0101856D01*
X0247400Y0100257D02*
X0246200Y0100257D01*
X0247400Y0100257D01*
X0247400Y0098659D02*
X0247200Y0098659D01*
X0247400Y0098659D01*
X0247400Y0097060D02*
X0247200Y0097060D01*
X0247400Y0097060D01*
X0247400Y0095462D02*
X0247200Y0095462D01*
X0247400Y0095462D01*
X0247400Y0093863D02*
X0246500Y0093863D01*
X0247400Y0093863D01*
X0247400Y0092265D02*
X0246200Y0092265D01*
X0247400Y0092265D01*
X0247400Y0090666D02*
X0246200Y0090666D01*
X0247400Y0090666D01*
X0247400Y0089068D02*
X0246200Y0089068D01*
X0247400Y0089068D01*
X0247400Y0087469D02*
X0246200Y0087469D01*
X0247400Y0087469D01*
X0247400Y0085870D02*
X0246200Y0085870D01*
X0247400Y0085870D01*
X0247400Y0084272D02*
X0246200Y0084272D01*
X0247400Y0084272D01*
X0247400Y0082673D02*
X0246200Y0082673D01*
X0247400Y0082673D01*
X0247400Y0081075D02*
X0246200Y0081075D01*
X0247400Y0081075D01*
X0247400Y0079476D02*
X0246760Y0079476D01*
X0247400Y0079476D01*
X0247400Y0077878D02*
X0247200Y0077878D01*
X0247400Y0077878D01*
X0247400Y0076279D02*
X0247200Y0076279D01*
X0247400Y0076279D01*
X0247400Y0074681D02*
X0247200Y0074681D01*
X0247400Y0074681D01*
X0247400Y0073082D02*
X0246200Y0073082D01*
X0247400Y0073082D01*
X0247400Y0071484D02*
X0246200Y0071484D01*
X0247400Y0071484D01*
X0247400Y0069885D02*
X0246200Y0069885D01*
X0247400Y0069885D01*
X0247400Y0068287D02*
X0246200Y0068287D01*
X0247400Y0068287D01*
X0247400Y0066688D02*
X0246200Y0066688D01*
X0247400Y0066688D01*
X0247746Y0065090D02*
X0246200Y0065090D01*
X0247746Y0065090D01*
X0248886Y0063491D02*
X0246200Y0063491D01*
X0248886Y0063491D01*
X0250485Y0061893D02*
X0246200Y0061893D01*
X0250485Y0061893D01*
X0252083Y0060294D02*
X0246200Y0060294D01*
X0252083Y0060294D01*
X0253682Y0058696D02*
X0247200Y0058696D01*
X0253682Y0058696D01*
X0255280Y0057097D02*
X0247200Y0057097D01*
X0255280Y0057097D01*
X0255700Y0055499D02*
X0247200Y0055499D01*
X0255700Y0055499D01*
X0255700Y0053900D02*
X0246537Y0053900D01*
X0255700Y0053900D01*
X0255700Y0052302D02*
X0246200Y0052302D01*
X0255700Y0052302D01*
X0256356Y0050703D02*
X0246200Y0050703D01*
X0256356Y0050703D01*
X0257569Y0049105D02*
X0246200Y0049105D01*
X0257569Y0049105D01*
X0260330Y0047506D02*
X0246200Y0047506D01*
X0260330Y0047506D01*
X0263270Y0047506D02*
X0270330Y0047506D01*
X0269192Y0049105D02*
X0266031Y0049105D01*
X0267569Y0049105D01*
X0267528Y0050703D02*
X0267244Y0050703D01*
X0271500Y0050703D02*
X0272100Y0050703D01*
X0272100Y0049105D02*
X0271500Y0049105D01*
X0273270Y0047506D02*
X0276284Y0047506D01*
X0263270Y0047506D01*
X0271488Y0042711D02*
X0246200Y0042711D01*
X0271488Y0042711D01*
X0273087Y0044309D02*
X0246200Y0044309D01*
X0273087Y0044309D01*
X0274685Y0045908D02*
X0246200Y0045908D01*
X0274685Y0045908D01*
X0274407Y0049105D02*
X0277400Y0049105D01*
X0276031Y0049105D01*
X0276072Y0050703D02*
X0276356Y0050703D01*
X0272100Y0052302D02*
X0271500Y0052302D01*
X0271500Y0053900D02*
X0272100Y0053900D01*
X0272100Y0055499D02*
X0271500Y0055499D01*
X0271500Y0058696D02*
X0272100Y0058696D01*
X0272100Y0060294D02*
X0271500Y0060294D01*
X0271500Y0061893D02*
X0272100Y0061893D01*
X0272100Y0063491D02*
X0271500Y0063491D01*
X0271500Y0065090D02*
X0272100Y0065090D01*
X0272897Y0065090D02*
X0278163Y0065090D01*
X0276602Y0063491D02*
X0275621Y0063491D01*
X0270703Y0065090D02*
X0265437Y0065090D01*
X0268163Y0065090D01*
X0267979Y0063491D02*
X0266998Y0063491D01*
X0270466Y0066688D02*
X0258134Y0066688D01*
X0295701Y0066688D01*
X0295701Y0068287D02*
X0256536Y0068287D01*
X0272064Y0068287D01*
X0273663Y0069885D02*
X0256200Y0069885D01*
X0295701Y0069885D01*
X0295701Y0071484D02*
X0256200Y0071484D01*
X0275261Y0071484D01*
X0276860Y0073082D02*
X0256200Y0073082D01*
X0295701Y0073082D01*
X0295598Y0073082D01*
X0295701Y0074681D02*
X0294576Y0074681D01*
X0295701Y0074681D02*
X0256200Y0074681D01*
X0278458Y0074681D01*
X0237400Y0073563D02*
X0237400Y0060037D01*
X0236800Y0059437D01*
X0234037Y0062200D01*
X0232057Y0062200D01*
X0224066Y0070191D01*
X0222596Y0070800D01*
X0215302Y0070800D01*
X0215079Y0071339D01*
X0214292Y0072126D01*
X0213262Y0072553D01*
X0207030Y0072553D01*
X0206800Y0072457D01*
X0206570Y0072553D01*
X0201704Y0072553D01*
X0194066Y0080191D01*
X0192596Y0080800D01*
X0181427Y0080800D01*
X0180427Y0081800D01*
X0181427Y0082800D01*
X0196797Y0082800D01*
X0198094Y0081502D01*
X0198094Y0078290D01*
X0198521Y0077261D01*
X0199308Y0076474D01*
X0200338Y0076047D01*
X0206570Y0076047D01*
X0206800Y0076143D01*
X0207030Y0076047D01*
X0213262Y0076047D01*
X0214292Y0076474D01*
X0215079Y0077261D01*
X0215302Y0077800D01*
X0225143Y0077800D01*
X0226400Y0076543D01*
X0226400Y0074563D01*
X0229563Y0071400D01*
X0234037Y0071400D01*
X0236800Y0074163D01*
X0237400Y0073563D01*
X0237400Y0073082D02*
X0235719Y0073082D01*
X0234121Y0071484D02*
X0237400Y0071484D01*
X0237400Y0069885D02*
X0224371Y0069885D01*
X0225970Y0068287D02*
X0237400Y0068287D01*
X0237400Y0066688D02*
X0227568Y0066688D01*
X0229167Y0065090D02*
X0237400Y0065090D01*
X0237400Y0063491D02*
X0230766Y0063491D01*
X0234344Y0061893D02*
X0237400Y0061893D01*
X0237400Y0060294D02*
X0235942Y0060294D01*
X0236800Y0054163D02*
X0237400Y0053563D01*
X0237400Y0040037D01*
X0236800Y0039437D01*
X0234037Y0042200D01*
X0232057Y0042200D01*
X0219066Y0055191D01*
X0217596Y0055800D01*
X0215302Y0055800D01*
X0215079Y0056339D01*
X0214292Y0057126D01*
X0213262Y0057553D01*
X0207030Y0057553D01*
X0206800Y0057457D01*
X0206570Y0057553D01*
X0201704Y0057553D01*
X0189066Y0070191D01*
X0187596Y0070800D01*
X0181427Y0070800D01*
X0180427Y0071800D01*
X0181427Y0072800D01*
X0190143Y0072800D01*
X0198094Y0064849D01*
X0198094Y0063290D01*
X0198521Y0062261D01*
X0199308Y0061474D01*
X0200338Y0061047D01*
X0206570Y0061047D01*
X0206800Y0061143D01*
X0207030Y0061047D01*
X0213262Y0061047D01*
X0214292Y0061474D01*
X0215079Y0062261D01*
X0215302Y0062800D01*
X0220143Y0062800D01*
X0226400Y0056543D01*
X0226400Y0054563D01*
X0229563Y0051400D01*
X0234037Y0051400D01*
X0236800Y0054163D01*
X0236537Y0053900D02*
X0237063Y0053900D01*
X0237400Y0052302D02*
X0234938Y0052302D01*
X0237400Y0050703D02*
X0223554Y0050703D01*
X0225152Y0049105D02*
X0237400Y0049105D01*
X0237400Y0047506D02*
X0226751Y0047506D01*
X0228349Y0045908D02*
X0237400Y0045908D01*
X0237400Y0044309D02*
X0229948Y0044309D01*
X0231546Y0042711D02*
X0237400Y0042711D01*
X0237400Y0041112D02*
X0235125Y0041112D01*
X0236723Y0039514D02*
X0236877Y0039514D01*
X0237844Y0033120D02*
X0235756Y0033120D01*
X0237844Y0033120D01*
X0239442Y0031521D02*
X0234158Y0031521D01*
X0239442Y0031521D01*
X0215437Y0047506D02*
X0215181Y0047506D01*
X0215437Y0047506D01*
X0220357Y0053900D02*
X0227063Y0053900D01*
X0226400Y0055499D02*
X0218323Y0055499D01*
X0214321Y0057097D02*
X0225846Y0057097D01*
X0224247Y0058696D02*
X0200561Y0058696D01*
X0198963Y0060294D02*
X0222649Y0060294D01*
X0221050Y0061893D02*
X0214711Y0061893D01*
X0203454Y0066800D02*
X0201800Y0066800D01*
X0197853Y0065090D02*
X0194167Y0065090D01*
X0192568Y0066688D02*
X0196255Y0066688D01*
X0194656Y0068287D02*
X0190970Y0068287D01*
X0189371Y0069885D02*
X0193058Y0069885D01*
X0191459Y0071484D02*
X0180743Y0071484D01*
X0181152Y0081075D02*
X0198094Y0081075D01*
X0198094Y0079476D02*
X0194780Y0079476D01*
X0196379Y0077878D02*
X0198265Y0077878D01*
X0197977Y0076279D02*
X0199777Y0076279D01*
X0199576Y0074681D02*
X0226400Y0074681D01*
X0226400Y0076279D02*
X0213823Y0076279D01*
X0214934Y0071484D02*
X0229479Y0071484D01*
X0227881Y0073082D02*
X0201174Y0073082D01*
X0198094Y0063491D02*
X0195766Y0063491D01*
X0197364Y0061893D02*
X0198889Y0061893D01*
X0201800Y0051800D02*
X0203454Y0051800D01*
X0221955Y0052302D02*
X0228662Y0052302D01*
X0236800Y0079437D02*
X0237400Y0080037D01*
X0237400Y0093563D01*
X0236800Y0094163D01*
X0234037Y0091400D01*
X0229563Y0091400D01*
X0228163Y0092800D01*
X0215302Y0092800D01*
X0215079Y0092261D01*
X0214292Y0091474D01*
X0213262Y0091047D01*
X0207030Y0091047D01*
X0206800Y0091143D01*
X0206570Y0091047D01*
X0200338Y0091047D01*
X0199308Y0091474D01*
X0198521Y0092261D01*
X0198298Y0092800D01*
X0181427Y0092800D01*
X0180427Y0091800D01*
X0181427Y0090800D01*
X0199249Y0090800D01*
X0200719Y0090191D01*
X0203358Y0087553D01*
X0206570Y0087553D01*
X0206800Y0087457D01*
X0207030Y0087553D01*
X0213262Y0087553D01*
X0214292Y0087126D01*
X0215079Y0086339D01*
X0215302Y0085800D01*
X0227596Y0085800D01*
X0229066Y0085191D01*
X0232057Y0082200D01*
X0234037Y0082200D01*
X0236800Y0079437D01*
X0236760Y0079476D02*
X0236840Y0079476D01*
X0237400Y0081075D02*
X0235162Y0081075D01*
X0237400Y0082673D02*
X0231583Y0082673D01*
X0229985Y0084272D02*
X0237400Y0084272D01*
X0237400Y0085870D02*
X0215273Y0085870D01*
X0213465Y0087469D02*
X0237400Y0087469D01*
X0237400Y0089068D02*
X0201843Y0089068D01*
X0199573Y0090666D02*
X0237400Y0090666D01*
X0237400Y0092265D02*
X0234901Y0092265D01*
X0236500Y0093863D02*
X0237100Y0093863D01*
X0236800Y0099437D02*
X0237400Y0100037D01*
X0237400Y0113563D01*
X0236800Y0114163D01*
X0234037Y0111400D01*
X0232057Y0111400D01*
X0229066Y0108409D01*
X0227596Y0107800D01*
X0215302Y0107800D01*
X0215079Y0107261D01*
X0214292Y0106474D01*
X0213262Y0106047D01*
X0207030Y0106047D01*
X0206800Y0106143D01*
X0206570Y0106047D01*
X0203358Y0106047D01*
X0200719Y0103409D01*
X0199249Y0102800D01*
X0181427Y0102800D01*
X0180427Y0101800D01*
X0181427Y0100800D01*
X0198298Y0100800D01*
X0198521Y0101339D01*
X0199308Y0102126D01*
X0200338Y0102553D01*
X0206570Y0102553D01*
X0206800Y0102457D01*
X0207030Y0102553D01*
X0213262Y0102553D01*
X0214292Y0102126D01*
X0215079Y0101339D01*
X0215302Y0100800D01*
X0228163Y0100800D01*
X0229563Y0102200D01*
X0234037Y0102200D01*
X0236800Y0099437D01*
X0237400Y0100257D02*
X0235980Y0100257D01*
X0237400Y0101856D02*
X0234381Y0101856D01*
X0237400Y0103454D02*
X0200765Y0103454D01*
X0202363Y0105053D02*
X0237400Y0105053D01*
X0237400Y0106651D02*
X0214469Y0106651D01*
X0214562Y0101856D02*
X0229219Y0101856D01*
X0228681Y0108250D02*
X0237400Y0108250D01*
X0237400Y0109848D02*
X0230505Y0109848D01*
X0234083Y0111447D02*
X0237400Y0111447D01*
X0237400Y0113045D02*
X0235682Y0113045D01*
X0236800Y0119437D02*
X0237400Y0120037D01*
X0237400Y0133563D01*
X0236800Y0134163D01*
X0234037Y0131400D01*
X0232057Y0131400D01*
X0224066Y0123409D01*
X0222596Y0122800D01*
X0215302Y0122800D01*
X0215079Y0122261D01*
X0214292Y0121474D01*
X0213262Y0121047D01*
X0207030Y0121047D01*
X0206800Y0121143D01*
X0206570Y0121047D01*
X0203358Y0121047D01*
X0199528Y0117217D01*
X0200338Y0117553D01*
X0206570Y0117553D01*
X0206800Y0117457D01*
X0207030Y0117553D01*
X0213262Y0117553D01*
X0214292Y0117126D01*
X0215079Y0116339D01*
X0215302Y0115800D01*
X0225143Y0115800D01*
X0226400Y0117057D01*
X0226400Y0119037D01*
X0229563Y0122200D01*
X0234037Y0122200D01*
X0236800Y0119437D01*
X0236798Y0119439D02*
X0236802Y0119439D01*
X0237400Y0121038D02*
X0235199Y0121038D01*
X0237400Y0122636D02*
X0215235Y0122636D01*
X0215119Y0116242D02*
X0225585Y0116242D01*
X0226400Y0117841D02*
X0200151Y0117841D01*
X0201750Y0119439D02*
X0226802Y0119439D01*
X0228401Y0121038D02*
X0203348Y0121038D01*
X0198430Y0116120D02*
X0198094Y0115310D01*
X0198094Y0112098D01*
X0196797Y0110800D01*
X0181427Y0110800D01*
X0180427Y0111800D01*
X0181427Y0112800D01*
X0194249Y0112800D01*
X0195719Y0113409D01*
X0198430Y0116120D01*
X0198094Y0114644D02*
X0196954Y0114644D01*
X0198094Y0113045D02*
X0194841Y0113045D01*
X0197443Y0111447D02*
X0180780Y0111447D01*
X0180482Y0101856D02*
X0199038Y0101856D01*
X0198519Y0092265D02*
X0180891Y0092265D01*
X0181300Y0082673D02*
X0196923Y0082673D01*
X0206772Y0087469D02*
X0206828Y0087469D01*
X0215081Y0092265D02*
X0228699Y0092265D01*
X0256200Y0103454D02*
X0268420Y0103454D01*
X0256200Y0103454D01*
X0256200Y0105053D02*
X0264815Y0105053D01*
X0256200Y0105053D01*
X0256200Y0106651D02*
X0262847Y0106651D01*
X0256200Y0106651D01*
X0256200Y0108250D02*
X0261379Y0108250D01*
X0256200Y0108250D01*
X0256200Y0109848D02*
X0260456Y0109848D01*
X0256200Y0109848D01*
X0256200Y0111447D02*
X0259715Y0111447D01*
X0256200Y0111447D01*
X0256200Y0113045D02*
X0259287Y0113045D01*
X0256200Y0113045D01*
X0256200Y0114644D02*
X0259000Y0114644D01*
X0256200Y0114644D01*
X0256200Y0116242D02*
X0259000Y0116242D01*
X0256200Y0116242D01*
X0256200Y0117841D02*
X0259095Y0117841D01*
X0256200Y0117841D01*
X0256200Y0119439D02*
X0259524Y0119439D01*
X0256200Y0119439D01*
X0256200Y0121038D02*
X0260044Y0121038D01*
X0256200Y0121038D01*
X0256200Y0122636D02*
X0260967Y0122636D01*
X0256200Y0122636D01*
X0256200Y0124235D02*
X0262133Y0124235D01*
X0256200Y0124235D01*
X0257056Y0125833D02*
X0263731Y0125833D01*
X0257056Y0125833D01*
X0258654Y0127432D02*
X0266347Y0127432D01*
X0258654Y0127432D01*
X0237400Y0127432D02*
X0228089Y0127432D01*
X0229687Y0129030D02*
X0237400Y0129030D01*
X0237400Y0130629D02*
X0231286Y0130629D01*
X0234864Y0132227D02*
X0237400Y0132227D01*
X0237137Y0133826D02*
X0236463Y0133826D01*
X0236800Y0139437D02*
X0237400Y0140037D01*
X0237400Y0153563D01*
X0236800Y0154163D01*
X0234037Y0151400D01*
X0232057Y0151400D01*
X0219066Y0138409D01*
X0217596Y0137800D01*
X0215302Y0137800D01*
X0215079Y0137261D01*
X0214292Y0136474D01*
X0213262Y0136047D01*
X0207030Y0136047D01*
X0206800Y0136143D01*
X0206570Y0136047D01*
X0203358Y0136047D01*
X0199528Y0132217D01*
X0200338Y0132553D01*
X0206570Y0132553D01*
X0206800Y0132457D01*
X0207030Y0132553D01*
X0213262Y0132553D01*
X0214292Y0132126D01*
X0215079Y0131339D01*
X0215302Y0130800D01*
X0220143Y0130800D01*
X0226400Y0137057D01*
X0226400Y0139037D01*
X0229563Y0142200D01*
X0234037Y0142200D01*
X0236800Y0139437D01*
X0237400Y0140220D02*
X0236017Y0140220D01*
X0237400Y0141818D02*
X0234418Y0141818D01*
X0237400Y0143417D02*
X0224074Y0143417D01*
X0225672Y0145015D02*
X0237400Y0145015D01*
X0237400Y0146614D02*
X0227271Y0146614D01*
X0228869Y0148212D02*
X0237400Y0148212D01*
X0237400Y0149811D02*
X0230468Y0149811D01*
X0234046Y0151409D02*
X0237400Y0151409D01*
X0237400Y0153008D02*
X0235645Y0153008D01*
X0236800Y0159437D02*
X0234037Y0162200D01*
X0229563Y0162200D01*
X0226400Y0159037D01*
X0226400Y0157057D01*
X0215256Y0145913D01*
X0215079Y0146339D01*
X0214292Y0147126D01*
X0213262Y0147553D01*
X0207030Y0147553D01*
X0206800Y0147457D01*
X0206570Y0147553D01*
X0200338Y0147553D01*
X0199528Y0147217D01*
X0203358Y0151047D01*
X0206570Y0151047D01*
X0206800Y0151143D01*
X0207030Y0151047D01*
X0213262Y0151047D01*
X0214292Y0151474D01*
X0215079Y0152261D01*
X0215505Y0153290D01*
X0215505Y0154849D01*
X0232057Y0171400D01*
X0234037Y0171400D01*
X0236800Y0174163D01*
X0237400Y0173563D01*
X0237400Y0160037D01*
X0236800Y0159437D01*
X0237400Y0161001D02*
X0235236Y0161001D01*
X0237400Y0162599D02*
X0223256Y0162599D01*
X0224854Y0164198D02*
X0237400Y0164198D01*
X0237400Y0165796D02*
X0226453Y0165796D01*
X0228051Y0167395D02*
X0237400Y0167395D01*
X0237400Y0168993D02*
X0229650Y0168993D01*
X0231248Y0170592D02*
X0237400Y0170592D01*
X0237400Y0172190D02*
X0234827Y0172190D01*
X0236425Y0173789D02*
X0237175Y0173789D01*
X0226329Y0176986D02*
X0218208Y0176986D01*
X0219807Y0178584D02*
X0226400Y0178584D01*
X0227546Y0180183D02*
X0221405Y0180183D01*
X0223004Y0181781D02*
X0229144Y0181781D01*
X0224730Y0175387D02*
X0216610Y0175387D01*
X0215011Y0173789D02*
X0223132Y0173789D01*
X0221533Y0172190D02*
X0122067Y0172190D01*
X0123095Y0170592D02*
X0219935Y0170592D01*
X0218336Y0168993D02*
X0123300Y0168993D01*
X0123644Y0167395D02*
X0216738Y0167395D01*
X0215139Y0165796D02*
X0125304Y0165796D01*
X0125800Y0164198D02*
X0213541Y0164198D01*
X0211942Y0162599D02*
X0125776Y0162599D01*
X0126603Y0161001D02*
X0198381Y0161001D01*
X0198094Y0159402D02*
X0128201Y0159402D01*
X0140227Y0129030D02*
X0141121Y0129030D01*
X0140227Y0129030D01*
X0143118Y0101856D02*
X0116312Y0101856D01*
X0116312Y0100257D02*
X0134694Y0100257D01*
X0133002Y0098659D02*
X0116312Y0098659D01*
X0116208Y0057097D02*
X0112754Y0057097D01*
X0114195Y0057097D01*
X0180427Y0121800D02*
X0181427Y0122800D01*
X0189249Y0122800D01*
X0190719Y0123409D01*
X0198430Y0131120D01*
X0198094Y0130310D01*
X0198094Y0127098D01*
X0191797Y0120800D01*
X0181427Y0120800D01*
X0180427Y0121800D01*
X0181189Y0121038D02*
X0192034Y0121038D01*
X0193633Y0122636D02*
X0181263Y0122636D01*
X0181427Y0130800D02*
X0180427Y0131800D01*
X0181427Y0132800D01*
X0184249Y0132800D01*
X0185719Y0133409D01*
X0198430Y0146120D01*
X0198094Y0145310D01*
X0198094Y0142098D01*
X0186797Y0130800D01*
X0181427Y0130800D01*
X0180854Y0132227D02*
X0188224Y0132227D01*
X0189823Y0133826D02*
X0186136Y0133826D01*
X0187735Y0135424D02*
X0191421Y0135424D01*
X0193020Y0137023D02*
X0189333Y0137023D01*
X0190932Y0138621D02*
X0194618Y0138621D01*
X0196217Y0140220D02*
X0192530Y0140220D01*
X0194129Y0141818D02*
X0197815Y0141818D01*
X0198094Y0143417D02*
X0195727Y0143417D01*
X0197326Y0145015D02*
X0198094Y0145015D01*
X0200523Y0148212D02*
X0217556Y0148212D01*
X0215957Y0146614D02*
X0214804Y0146614D01*
X0214137Y0151409D02*
X0220753Y0151409D01*
X0219154Y0149811D02*
X0202121Y0149811D01*
X0215389Y0153008D02*
X0222351Y0153008D01*
X0223950Y0154606D02*
X0215505Y0154606D01*
X0216862Y0156205D02*
X0225548Y0156205D01*
X0226400Y0157803D02*
X0218460Y0157803D01*
X0220059Y0159402D02*
X0226765Y0159402D01*
X0228364Y0161001D02*
X0221657Y0161001D01*
X0222475Y0141818D02*
X0229182Y0141818D01*
X0227583Y0140220D02*
X0220877Y0140220D01*
X0219278Y0138621D02*
X0226400Y0138621D01*
X0226366Y0137023D02*
X0214841Y0137023D01*
X0214048Y0132227D02*
X0221570Y0132227D01*
X0223169Y0133826D02*
X0201136Y0133826D01*
X0199552Y0132227D02*
X0199538Y0132227D01*
X0198227Y0130629D02*
X0197939Y0130629D01*
X0198094Y0129030D02*
X0196341Y0129030D01*
X0194742Y0127432D02*
X0198094Y0127432D01*
X0196830Y0125833D02*
X0193144Y0125833D01*
X0191545Y0124235D02*
X0195231Y0124235D01*
X0202735Y0135424D02*
X0224767Y0135424D01*
X0226490Y0125833D02*
X0237400Y0125833D01*
X0237400Y0124235D02*
X0224892Y0124235D01*
D26*
X0241800Y0116800D02*
X0241800Y0096800D01*
X0241800Y0076800D01*
X0241800Y0056800D01*
X0241800Y0036800D01*
X0271800Y0036800D01*
X0281800Y0046800D01*
X0281800Y0056800D01*
X0271800Y0061800D02*
X0286800Y0076800D01*
X0286800Y0126800D01*
X0281643Y0131957D01*
X0281643Y0156800D01*
X0261957Y0156800D02*
X0261957Y0136957D01*
X0251800Y0126800D01*
X0251800Y0066800D01*
X0261800Y0056800D01*
X0241800Y0116800D02*
X0241800Y0136800D01*
X0241800Y0156800D01*
X0241800Y0176800D01*
X0231800Y0186800D01*
X0221800Y0186800D01*
X0211800Y0176800D01*
X0051800Y0176800D01*
X0041800Y0166800D01*
X0041800Y0156800D01*
X0048800Y0149800D01*
X0056800Y0149800D01*
X0056800Y0108800D01*
M02*
